<?xml version="1.0" encoding="utf-8"?>
<!-- Generator: Adobe Illustrator 18.0.0, SVG Export Plug-In . SVG Version: 6.00 Build 0)  -->
<!DOCTYPE svg PUBLIC "-//W3C//DTD SVG 1.1//EN" "http://www.w3.org/Graphics/SVG/1.1/DTD/svg11.dtd" [
	<!ENTITY ns_flows "http://ns.adobe.com/Flows/1.0/">
	<!ENTITY ns_extend "http://ns.adobe.com/Extensibility/1.0/">
	<!ENTITY ns_ai "http://ns.adobe.com/AdobeIllustrator/10.0/">
	<!ENTITY ns_graphs "http://ns.adobe.com/Graphs/1.0/">
]>
<svg version="1.1" id="Layer_1" xmlns:x="&ns_extend;" xmlns:i="&ns_ai;" xmlns:graph="&ns_graphs;"
	 xmlns="http://www.w3.org/2000/svg" xmlns:xlink="http://www.w3.org/1999/xlink" xmlns:a="http://ns.adobe.com/AdobeSVGViewerExtensions/3.0/"
	 x="0px" y="0px" viewBox="0 0 1400 980" enable-background="new 0 0 1400 980" xml:space="preserve">
<g>
	<rect fill="#FFFFFF" width="1400" height="980"/>
	<g>
		<g>
			<rect x="96" y="345.7" fill="#E5CDAD" width="1208" height="111.6"/>
			<g>
				<g>
					<g>
						<path fill="#4BA747" d="M203.3,137.5c-1.4-1.1-6.9-0.2-12.1-7.1c-5.7-7-11.4-4-13.1-3.6c-1.9,0.3-3.6,0.7-6.8-1.3
							c-3.3-2.1-8.2-1-11.6,1.5c-3.5,2.4-8.1,4-8.1,4c0,0,4.2,2.7,5.8,6.3c1.8,3.6,4,6.6,6.8,6.9c2.9,0.3,3.5,1.8,4,3.2
							c0.6,1.6,0.2,6.7,6,7.4c6.1,1.1,4.7,6.5,5.2,7.1c1,1.4,2.4,5.2,23.1,3.8c0.4,0.3,0.9,0.5,1.3,0.8c0-0.5,0-1,0-1.5
							C215.3,146.3,204.2,137.8,203.3,137.5z M202,162.9c-6.6-9.3-16.4-18-25.2-23.1c-8.7-5.4-16.5-7.2-16.4-7.3
							c-0.2,0.2,7.9,0.8,17.2,5.9C186.8,143.1,197.2,152.3,202,162.9z"/>
					</g>
				</g>
				<g>
					<g>
						<path fill="#4BA747" d="M286.6,158.6c1.4-1.1,6.9-0.2,12.1-7.1c5.7-7,11.4-4,13.1-3.6c1.9,0.3,3.6,0.7,6.8-1.3
							c3.3-2.1,8.2-1,11.6,1.5c3.5,2.4,8.1,4,8.1,4c0,0-4.2,2.7-5.8,6.3c-1.8,3.6-4,6.6-6.8,6.9c-2.9,0.3-3.5,1.8-4,3.2
							c-0.6,1.6-0.2,6.7-6,7.4c-6.1,1.1-4.7,6.5-5.2,7.1c-1,1.4-2.4,5.2-23.1,3.8c-0.4,0.3-0.9,0.5-1.3,0.8c0-0.5,0-1,0-1.5
							C274.6,167.3,285.7,158.9,286.6,158.6z M287.9,183.9c6.6-9.3,16.4-18,25.2-23.1c8.7-5.4,16.5-7.2,16.4-7.3
							c0.2,0.2-7.9,0.8-17.2,5.9C303.1,164.2,292.7,173.4,287.9,183.9z"/>
					</g>
				</g>
				<g>
					<g>
						<path fill="#4BA747" d="M182.9,171.5c-1.4,0.1-4.3,3.2-10.7,1.6c-6.8-1.5-8.8,3.2-9.6,4.2c-0.9,1.1-1.8,2.2-4.7,2.5
							c-3,0.3-5.4,3.4-6.2,6.5c-0.9,3.1-2.9,6.4-2.9,6.4c0,0,3.8-0.4,6.6,1c2.8,1.3,5.6,2,7.5,0.8c1.9-1.2,3-0.6,4,0
							c1.1,0.6,3.4,3.9,7.2,1.5c4.2-2.3,6,1.6,6.6,1.7c1.3,0.4,4,1.9,15.7-9c0.4-0.1,0.8-0.1,1.2-0.2c-0.2-0.3-0.5-0.6-0.7-1
							C194.4,170.9,183.6,171.3,182.9,171.5z M194.5,187.4c-8.5-2.4-18.6-2.8-26.4-1.6c-7.9,1-13.4,3.8-13.4,3.6
							c0,0.2,5.2-3.4,13.2-4.8C175.8,182.9,186.5,183.3,194.5,187.4z"/>
					</g>
				</g>
				<g>
					<g>
						<path fill="#4BA747" d="M179,235.3c-1.3,0.5-2.9,4.5-9.6,5.1c-6.9,0.9-7.2,5.9-7.7,7.2c-0.5,1.4-1,2.6-3.6,3.9
							c-2.7,1.3-4,5-3.7,8.2c0.2,3.3-0.6,7-0.6,7c0,0,3.5-1.7,6.5-1.3c3.1,0.3,6,0,7.3-1.7c1.3-1.8,2.6-1.6,3.7-1.3
							c1.3,0.2,4.5,2.6,7.3-0.9c3.2-3.6,6.2-0.5,6.8-0.6c1.3-0.1,4.4,0.5,11.8-13.7c0.3-0.2,0.7-0.4,1.1-0.5c-0.3-0.2-0.7-0.4-1-0.7
							C189.6,230.9,179.5,234.8,179,235.3z M195.1,246.4c-8.8,0.6-18.5,3.5-25.4,7.3c-7.1,3.6-11.4,8-11.4,7.9
							c0.1,0.2,3.8-4.9,10.8-8.9C176,248.4,186.3,245.3,195.1,246.4z"/>
					</g>
				</g>
				<g>
					<g>
						<path fill="#4BA747" d="M247.4,139.5c-0.9-1-5.2-1.1-8.2-7.1c-3.3-6.1-8.1-4.6-9.4-4.6c-1.5,0-2.8,0-5-2c-2.2-2-6.1-1.9-9-0.5
							c-3,1.3-6.7,1.9-6.7,2c0,0,2.8,2.6,3.6,5.6c0.8,3,2.1,5.6,4.3,6.2c2.2,0.6,2.4,1.8,2.6,3c0.2,1.3-0.8,5.1,3.5,6.5
							c4.5,1.7,2.7,5.6,3,6.2c0.5,1.2,1.1,4.3,17,6.1c0.3,0.3,0.6,0.5,0.9,0.8c0.1-0.4,0.2-0.8,0.3-1.2
							C255.3,147.8,248,139.8,247.4,139.5z M242.9,158.6c-3.7-8-9.9-16-16-21.1c-5.9-5.3-11.6-7.7-11.5-7.8
							c-0.2,0.1,5.9,1.7,12.3,6.9C234.1,141.4,240.7,149.9,242.9,158.6z"/>
					</g>
				</g>
				<g>
					<g>
						<path fill="#4BA747" d="M345.6,209.2c1.4,0.1,4.1,3.5,10.6,2.3c6.9-1,8.6,3.7,9.3,4.8c0.9,1.2,1.7,2.3,4.6,2.8
							c2.9,0.5,5.2,3.7,5.8,6.9c0.7,3.2,2.5,6.5,2.5,6.5c0,0-3.8-0.6-6.6,0.5c-2.9,1.1-5.8,1.7-7.5,0.3c-1.8-1.4-2.9-0.8-4-0.3
							c-1.2,0.6-3.6,3.7-7.3,1.1c-4-2.6-6.1,1.2-6.7,1.3c-1.3,0.3-4.1,1.7-15.1-9.9c-0.4-0.1-0.8-0.2-1.2-0.2
							c0.3-0.3,0.5-0.6,0.8-0.9C334.2,207.9,344.9,208.9,345.6,209.2z M333.1,224.3c8.6-1.9,18.7-1.7,26.5,0
							c7.8,1.5,13.2,4.6,13.2,4.4c0,0.2-5-3.7-12.9-5.6C352.1,221,341.3,220.8,333.1,224.3z"/>
					</g>
				</g>
				<g>
					<g>
						<path fill="#4BA747" d="M343.3,249.2c1.1,0.8,1.6,5.1,7.8,7.6c6.4,2.8,5.2,7.7,5.3,9c0.1,1.5,0.2,2.8,2.4,4.8
							c2.2,2,2.4,5.9,1.2,8.9c-1.1,3.1-1.4,6.9-1.4,6.9c0,0-2.9-2.6-5.9-3.1c-3-0.6-5.8-1.7-6.5-3.7c-0.8-2.1-2-2.2-3.2-2.3
							c-1.3-0.1-5,1.2-6.7-3c-2-4.3-5.8-2.2-6.4-2.5c-1.2-0.4-4.3-0.8-7.5-16.5c-0.3-0.3-0.6-0.6-0.9-0.8c0.4-0.1,0.8-0.2,1.1-0.3
							C334.3,242,342.8,248.6,343.3,249.2z M324.6,255.3c8.3,3,16.7,8.6,22.3,14.2c5.7,5.5,8.7,10.9,8.7,10.8
							c-0.1,0.2-2.2-5.8-7.9-11.7C342.4,262.7,333.4,256.7,324.6,255.3z"/>
					</g>
				</g>
				<g>
					<g>
						<path fill="#4BA747" d="M288.4,214.5c0.8-0.6,3.8,0,6.7-3.7c3.2-3.7,6.3-2,7.2-1.8c1,0.2,1.9,0.4,3.7-0.6
							c1.8-1.1,4.5-0.4,6.3,1c1.9,1.4,4.3,2.3,4.3,2.3c0,0-2.3,1.4-3.3,3.3c-1,1.9-2.3,3.6-3.8,3.6c-1.6,0.1-1.9,0.9-2.2,1.7
							c-0.4,0.8-0.2,3.6-3.4,3.9c-3.3,0.5-2.7,3.4-3,3.8c-0.6,0.7-1.4,2.8-12.6,1.7c-0.2,0.1-0.5,0.3-0.7,0.4c0-0.3,0-0.6,0-0.8
							C281.7,219.1,287.9,214.7,288.4,214.5z M288.7,228.4c3.7-5,9.2-9.5,14.1-12.2c4.8-2.8,9.1-3.6,9.1-3.7
							c0.1,0.1-4.3,0.3-9.5,2.9C297.3,217.9,291.4,222.7,288.7,228.4z"/>
					</g>
				</g>
				<g>
					<g>
						<path fill="#4BA747" d="M256.2,178.1c0-1,2-3.2,0.5-7.6c-1.4-4.7,1.7-6.4,2.3-7c0.7-0.7,1.4-1.4,1.5-3.5c0.1-2.1,2-4,4.2-4.8
							c2.1-0.8,4.3-2.4,4.3-2.4c0,0,0,2.7,1.1,4.6c1.1,1.9,1.8,3.8,1,5.2c-0.8,1.4-0.3,2.1,0.2,2.8c0.5,0.7,3,2.1,1.5,4.9
							c-1.4,3.1,1.5,4.1,1.6,4.5c0.3,0.9,1.6,2.7-5.3,11.6c0,0.3,0,0.6,0,0.8c-0.2-0.1-0.5-0.3-0.7-0.5
							C256.5,186.2,256.1,178.6,256.2,178.1z M268.1,185.3c-2.2-5.8-3.1-12.9-2.8-18.4c0.2-5.6,1.8-9.7,1.7-9.6c0.1,0-2,3.8-2.6,9.6
							C263.8,172.4,264.8,179.9,268.1,185.3z"/>
					</g>
				</g>
				<g>
					<g>
						<path fill="#4BA747" d="M281.5,136.1c0.8-0.6,3.8-0.2,6.5-4.1c3-3.9,6.1-2.3,7.1-2.2c1,0.2,2,0.3,3.7-0.8
							c1.7-1.2,4.4-0.7,6.3,0.6c1.9,1.2,4.5,2.1,4.5,2.1c0,0-2.2,1.5-3.1,3.5c-0.9,2-2.1,3.7-3.6,3.9c-1.6,0.2-1.9,1-2.1,1.8
							c-0.3,0.9,0,3.6-3.1,4.1c-3.3,0.7-2.5,3.6-2.7,4c-0.5,0.8-1.2,2.9-12.5,2.4c-0.2,0.1-0.5,0.3-0.7,0.5c0-0.3,0-0.6-0.1-0.8
							C275.1,141.1,281,136.3,281.5,136.1z M282.6,149.9c3.4-5.2,8.6-10.1,13.4-13c4.7-3.1,8.9-4.2,8.8-4.2c0.1,0.1-4.3,0.6-9.3,3.5
							C290.6,138.9,285.1,144.1,282.6,149.9z"/>
					</g>
				</g>
				<g>
					<g>
						<path fill="#4BA747" d="M256.7,130.2c0.6-0.8,3.5-1.3,5.1-5.7c1.8-4.6,5.3-4,6.2-4.1c1-0.1,2-0.2,3.3-1.8
							c1.3-1.6,4.1-1.9,6.2-1.2c2.2,0.7,4.9,0.7,4.9,0.7c0,0-1.7,2.1-2,4.3c-0.3,2.1-1,4.1-2.4,4.7c-1.5,0.6-1.5,1.5-1.5,2.3
							c-0.1,0.9,1,3.5-1.9,4.8c-3,1.6-1.4,4.1-1.5,4.6c-0.3,0.9-0.4,3.1-11.3,5.8c-0.2,0.2-0.4,0.4-0.6,0.6
							c-0.1-0.3-0.2-0.5-0.3-0.8C252,136.8,256.4,130.6,256.7,130.2z M261.7,143.2c1.9-5.9,5.5-12.1,9.2-16.2
							c3.6-4.2,7.4-6.5,7.3-6.5c0.1,0.1-4,1.8-7.9,5.9C266.3,130.4,262.4,136.9,261.7,143.2z"/>
					</g>
				</g>
				<g>
					<g>
						<path fill="#4BA747" d="M263,93.2c1-0.1,3.4,1.7,7.6-0.4c4.5-1.9,6.5,1,7.2,1.6c0.8,0.6,1.5,1.3,3.6,1.1
							c2.1-0.2,4.2,1.6,5.2,3.7c1.1,2,2.9,4,2.9,4c0,0-2.7,0.2-4.4,1.6c-1.8,1.3-3.6,2.2-5.1,1.6c-1.5-0.6-2.1,0-2.7,0.5
							c-0.7,0.6-1.8,3.2-4.8,2c-3.2-1-3.9,1.9-4.3,2.1c-0.8,0.4-2.5,1.9-12.1-4.1c-0.3,0-0.6,0-0.8,0c0.1-0.3,0.2-0.5,0.4-0.8
							C255,94.3,262.5,93.1,263,93.2z M257.2,105.7c5.5-2.8,12.5-4.5,18-4.7c5.6-0.3,9.8,0.8,9.8,0.7c0,0.1-4-1.6-9.8-1.5
							C269.6,100.1,262.2,101.9,257.2,105.7z"/>
					</g>
				</g>
				<g>
					<g>
						<path fill="#4BA747" d="M330.5,188.9c0.9-0.3,3.6,1,7.4-1.9c4.1-2.8,6.6-0.3,7.4,0.1c0.9,0.5,1.8,0.9,3.8,0.4
							c2-0.6,4.4,0.7,5.8,2.6c1.4,1.8,3.6,3.4,3.6,3.4c0,0-2.6,0.8-4,2.4c-1.5,1.6-3.1,2.8-4.6,2.5c-1.5-0.3-2.1,0.4-2.6,1.1
							c-0.6,0.7-1.1,3.5-4.3,2.9c-3.4-0.4-3.5,2.6-3.8,2.9c-0.7,0.6-2.1,2.3-12.7-1.6c-0.3,0.1-0.5,0.1-0.8,0.2
							c0.1-0.3,0.1-0.5,0.2-0.8C322.9,191.6,330,188.9,330.5,188.9z M327.3,202.3c4.9-3.8,11.3-6.9,16.8-8.2
							c5.4-1.4,9.8-1.2,9.7-1.3c0.1,0.1-4.3-0.8-9.9,0.4C338.3,194.4,331.4,197.6,327.3,202.3z"/>
					</g>
				</g>
				<g>
					<g>
						<path fill="#4BA747" d="M340.2,161.8c0.9-0.2,3.5,1.5,7.6-0.7c4.4-2.2,6.5,0.7,7.3,1.2c0.8,0.6,1.6,1.2,3.7,0.9
							c2.1-0.3,4.3,1.4,5.4,3.4c1.2,2,3.1,3.9,3.1,3.9c0,0-2.7,0.4-4.3,1.8c-1.7,1.4-3.5,2.3-5,1.8c-1.5-0.5-2.1,0.1-2.7,0.7
							c-0.7,0.6-1.6,3.3-4.7,2.3c-3.3-0.9-3.8,2.1-4.2,2.3c-0.8,0.5-2.4,2-12.3-3.5c-0.3,0-0.6,0.1-0.8,0.1c0.1-0.3,0.2-0.5,0.3-0.8
							C332.2,163.3,339.7,161.7,340.2,161.8z M335,174.6c5.4-3.1,12.2-5.1,17.8-5.6c5.6-0.6,9.8,0.3,9.8,0.2c0,0.1-4.1-1.4-9.9-1.1
							C347.1,168.4,339.8,170.5,335,174.6z"/>
					</g>
				</g>
				<g>
					<g>
						<path fill="#4BA747" d="M331.5,120.4c0.9,0.2,2.7,2.6,7.4,2.1c4.9-0.4,5.9,3,6.4,3.8c0.6,0.9,1.1,1.7,3.1,2.2
							c2,0.5,3.5,2.8,3.8,5.1c0.4,2.3,1.5,4.7,1.5,4.7c0,0-2.6-0.6-4.7,0.1c-2.1,0.7-4.1,0.9-5.3-0.1c-1.2-1-2-0.7-2.8-0.4
							c-0.8,0.4-2.7,2.5-5.2,0.5c-2.7-2-4.3,0.6-4.8,0.6c-0.9,0.1-2.9,1-10.2-7.7c-0.3-0.1-0.5-0.1-0.8-0.2c0.2-0.2,0.4-0.4,0.6-0.6
							C323.6,119,331.1,120.2,331.5,120.4z M322.1,130.5c6.1-0.9,13.2-0.4,18.6,1.2c5.4,1.4,9.1,3.8,9.1,3.7c0,0.1-3.3-2.8-8.8-4.5
							C335.6,129,328,128.4,322.1,130.5z"/>
					</g>
				</g>
				<g>
					<g>
						<path fill="#4BA747" d="M300.5,101.7c0.9-0.2,3.5,1.3,7.6-1c4.3-2.3,6.6,0.4,7.3,0.9c0.9,0.6,1.7,1.1,3.7,0.8
							c2.1-0.4,4.3,1.2,5.5,3.2c1.2,1.9,3.2,3.7,3.2,3.7c0,0-2.7,0.5-4.3,1.9c-1.6,1.4-3.4,2.5-4.9,2c-1.5-0.5-2.1,0.2-2.7,0.8
							c-0.6,0.7-1.5,3.3-4.6,2.5c-3.3-0.7-3.7,2.3-4.1,2.5c-0.8,0.5-2.3,2.1-12.4-3c-0.3,0-0.6,0.1-0.8,0.1c0.1-0.3,0.2-0.5,0.3-0.8
							C292.6,103.6,300,101.7,300.5,101.7z M295.8,114.7c5.3-3.3,12-5.6,17.6-6.3c5.5-0.8,9.8-0.1,9.8-0.2c0,0.1-4.2-1.3-9.9-0.7
							C307.6,108,300.4,110.5,295.8,114.7z"/>
					</g>
				</g>
				<g>
					<g>
						<path fill="#4BA747" d="M305.3,261.6c0.7,0.6,0.9,3.7,5.2,5.6c4.4,2.2,3.4,5.6,3.4,6.6c0,1,0,2,1.5,3.5
							c1.5,1.5,1.5,4.2,0.5,6.3c-0.9,2.1-1.2,4.8-1.2,4.8c0,0-1.9-1.9-4-2.4c-2.1-0.5-4-1.4-4.4-2.9c-0.5-1.5-1.3-1.7-2.2-1.8
							c-0.9-0.1-3.6,0.7-4.6-2.3c-1.3-3.1-4-1.8-4.4-2c-0.9-0.4-3-0.7-4.6-11.9c-0.2-0.2-0.4-0.4-0.6-0.6c0.3-0.1,0.5-0.1,0.8-0.2
							C299.3,256.2,305,261.2,305.3,261.6z M292,265.2c5.7,2.4,11.4,6.7,15.2,10.8c3.8,4.1,5.7,8,5.8,7.9c-0.1,0.1-1.3-4.1-5.1-8.5
							C304.2,271,298.1,266.5,292,265.2z"/>
					</g>
				</g>
				<g>
					<g>
						<path fill="#4BA747" d="M222.9,219.1c-1,0-3.2,2-7.6,0.5c-4.7-1.4-6.4,1.7-7,2.4c-0.7,0.7-1.4,1.4-3.5,1.5
							c-2.1,0.1-4,2-4.8,4.2c-0.8,2.1-2.4,4.3-2.4,4.3c0,0,2.7-0.1,4.6,1.1c1.9,1.1,3.8,1.8,5.2,1c1.4-0.8,2.1-0.3,2.8,0.2
							c0.7,0.5,2.1,3,5,1.5c3.1-1.4,4.1,1.5,4.5,1.6c0.9,0.3,2.7,1.6,11.6-5.4c0.3,0,0.6,0,0.8,0c-0.1-0.2-0.3-0.5-0.5-0.7
							C231,219.4,223.4,219,222.9,219.1z M230,231c-5.8-2.2-12.9-3.1-18.5-2.7c-5.6,0.3-9.7,1.8-9.6,1.7c0,0.1,3.8-2.1,9.6-2.6
							C217.1,226.7,224.7,227.7,230,231z"/>
					</g>
				</g>
				<g>
					<g>
						<path fill="#4BA747" d="M220.6,258.9c-0.9,0.2-2.6,2.7-7.3,2.2c-4.9-0.3-5.8,3.1-6.3,3.9c-0.5,0.9-1,1.7-3,2.2
							c-2,0.5-3.4,2.9-3.7,5.2c-0.3,2.3-1.4,4.7-1.4,4.7c0,0,2.6-0.7,4.7,0c2.1,0.6,4.1,0.8,5.3-0.2c1.2-1.1,2-0.7,2.8-0.4
							c0.8,0.3,2.7,2.4,5.2,0.3c2.7-2,4.3,0.5,4.8,0.5c0.9,0.1,3,0.9,10-7.9c0.3-0.1,0.5-0.2,0.8-0.2c-0.2-0.2-0.4-0.4-0.6-0.6
							C228.6,257.3,221.1,258.7,220.6,258.9z M230.3,268.8c-6.2-0.8-13.3-0.1-18.6,1.6c-5.4,1.5-9,4-9,3.9c0,0.1,3.3-2.9,8.7-4.7
							C216.8,267.6,224.3,266.8,230.3,268.8z"/>
					</g>
				</g>
				<g>
					<g>
						<path fill="#4BA747" d="M197.4,197.5c-1,0-3,2.2-7.6,1c-4.8-1.1-6.2,2.2-6.8,2.9c-0.7,0.8-1.3,1.5-3.4,1.7
							c-2.1,0.2-3.8,2.3-4.5,4.5c-0.7,2.2-2.1,4.5-2.1,4.5c0,0,2.7-0.3,4.6,0.7c2,0.9,4,1.5,5.3,0.6c1.3-0.9,2.1-0.4,2.8,0
							c0.8,0.5,2.3,2.8,5,1.2c3-1.6,4.2,1.2,4.6,1.3c0.9,0.3,2.8,1.4,11.2-6.2c0.3,0,0.6-0.1,0.8-0.1c-0.2-0.2-0.3-0.5-0.5-0.7
							C205.5,197.2,197.9,197.3,197.4,197.5z M205.4,208.8c-5.9-1.8-13.1-2.2-18.6-1.4c-5.5,0.7-9.5,2.5-9.5,2.4
							c0,0.1,3.7-2.3,9.4-3.3C192.2,205.4,199.8,205.9,205.4,208.8z"/>
					</g>
				</g>
				<g>
					<g>
						<path fill="#4BA747" d="M202.7,105.8c-0.8-0.5-3.8,0.1-6.8-3.5c-3.3-3.6-6.3-1.8-7.2-1.6c-1,0.2-1.9,0.5-3.7-0.5
							c-1.8-1-4.5-0.3-6.2,1.2c-1.8,1.4-4.3,2.4-4.3,2.4c0,0,2.4,1.3,3.4,3.3c1.1,1.9,2.4,3.5,3.9,3.5c1.6,0.1,2,0.9,2.3,1.6
							c0.4,0.8,0.3,3.6,3.5,3.8c3.3,0.4,2.8,3.4,3.1,3.7c0.6,0.7,1.5,2.7,12.7,1.4c0.2,0.1,0.5,0.3,0.7,0.4c0-0.3,0-0.6,0-0.8
							C209.5,110.3,203.1,106,202.7,105.8z M202.7,119.7c-3.9-4.9-9.5-9.3-14.4-11.8c-4.9-2.6-9.2-3.4-9.1-3.5
							c-0.1,0.1,4.3,0.2,9.5,2.7C193.8,109.4,199.8,114.1,202.7,119.7z"/>
					</g>
				</g>
				<g>
					<g>
						<path fill="#4BA747" d="M244.4,104.8c-0.8-0.5-3.8,0.1-6.8-3.5c-3.3-3.6-6.3-1.8-7.2-1.6c-1,0.2-1.9,0.5-3.7-0.5
							c-1.8-1-4.5-0.3-6.2,1.2c-1.8,1.4-4.3,2.4-4.3,2.4c0,0,2.4,1.3,3.4,3.3c1.1,1.9,2.4,3.5,3.9,3.5c1.6,0.1,2,0.9,2.3,1.6
							c0.4,0.8,0.3,3.6,3.5,3.8c3.3,0.4,2.8,3.4,3.1,3.7c0.6,0.7,1.5,2.7,12.7,1.4c0.2,0.1,0.5,0.3,0.7,0.4c0-0.3,0-0.6,0-0.8
							C251.2,109.2,244.9,105,244.4,104.8z M244.4,118.7c-3.9-4.9-9.5-9.3-14.4-11.8c-4.9-2.6-9.2-3.4-9.1-3.5
							c-0.1,0.1,4.3,0.2,9.5,2.7C235.6,108.4,241.5,113.1,244.4,118.7z"/>
					</g>
				</g>
				<g>
					<g>
						<path fill="#4BA747" d="M154.6,149.6c-0.9-0.2-3.4,1.5-7.6-0.6c-4.4-2.1-6.5,0.8-7.3,1.3c-0.8,0.6-1.6,1.2-3.6,0.9
							c-2.1-0.2-4.2,1.4-5.3,3.5c-1.1,2-3,3.9-3,3.9c0,0,2.7,0.3,4.4,1.7c1.7,1.3,3.5,2.3,5,1.8c1.5-0.6,2.1,0,2.7,0.6
							c0.7,0.6,1.7,3.2,4.7,2.2c3.2-0.9,3.9,2.1,4.3,2.3c0.8,0.5,2.4,2,12.2-3.6c0.3,0,0.6,0,0.8,0.1c-0.1-0.3-0.2-0.5-0.3-0.8
							C162.6,151.1,155.1,149.6,154.6,149.6z M160,162.4c-5.4-3-12.3-4.9-17.9-5.4c-5.6-0.6-9.8,0.4-9.8,0.3c0,0.1,4.1-1.5,9.8-1.2
							C147.8,156.3,155.1,158.4,160,162.4z"/>
					</g>
				</g>
				<g>
					<g>
						<path fill="#4BA747" d="M166,217c-1,0-3,2.2-7.6,1c-4.8-1.1-6.2,2.2-6.8,2.9c-0.7,0.8-1.3,1.5-3.4,1.7
							c-2.1,0.2-3.8,2.3-4.5,4.5c-0.7,2.2-2.1,4.5-2.1,4.5c0,0,2.7-0.3,4.6,0.7c2,0.9,4,1.5,5.3,0.6c1.3-0.9,2.1-0.4,2.8,0
							c0.8,0.5,2.3,2.8,5,1.2c3-1.6,4.2,1.2,4.6,1.3c0.9,0.3,2.8,1.4,11.2-6.2c0.3,0,0.6-0.1,0.8-0.1c-0.2-0.2-0.3-0.5-0.5-0.7
							C174.1,216.7,166.5,216.8,166,217z M174,228.3c-5.9-1.8-13.1-2.2-18.6-1.4c-5.5,0.7-9.5,2.5-9.5,2.4c0,0.1,3.7-2.3,9.4-3.3
							C160.8,225,168.4,225.4,174,228.3z"/>
					</g>
				</g>
				<path fill="#A96F31" d="M329.3,380.2c-0.9-2.2-1.3-4.5-2.2-6.7c-0.2-0.5-0.4-0.9-0.7-1.2c8.3,1.8,15.5,5.4,18.8,8.1
					c0,0-4.1-10.7-25.3-15.7c-21.2-5-39.1-6.7-44.5-17.4c0,0-8.4-13.7-7.3-54.2c2.5-15.6,11.1-28.6,21.5-38.9
					c9.4-2.6,24.2-4.1,40.1,4.1c0,0-7.9-14-29.1-13.8c17.9-13.9,36.4-20.8,36.4-20.8c-34.5,2-55.7,20.5-65.9,32.5
					c7.2-56.3,21-79.9,21-79.9s-28.1,30.3-31.5,58c0,0-2.4-7.2-7.3-17.3c7.2-40.5-12.9-63.5-12.9-63.5c9.5,16.4,4.7,48.1,4.7,48.1
					c-11.1-18.8-28.1-40.1-51.2-48.1c0,0,12.6,14.3,25.4,34c-6.6-2.3-17.7-4.4-32.8-0.4c0,0,24.6,2.7,40.3,12.7
					c8.7,15,16.3,31.7,18.7,47.3c-8.4-3.6-27.7-8.9-54.6,0.7c0,0,40-2,55.3,19.1c-1,40.5-7.4,79.4-7.4,79.4s-13.6,16.7-31.9,21.7
					c-18.3,5-39.4,20.7-27.4,37.8c0,0-3.7-17.1,12-21.1c-2.9,2.8-3.5,6.7-3.5,10.5c0,2.8,0.7,6.2-0.2,9c-1,3-2.7,6.4-4.9,8.6
					c3.1-0.4,7.3-3.9,8.2-6.9c1.3-4.2,0.9-8.8,2.6-12.9c1-2.5,2.7-5.1,4.9-6.7c1.8-1.4,4.5-2.1,6.7-2.9c2.3-0.8,4.8-1.6,6.6-3.2
					c6.9-1.6,12.3-3.4,15.1-6.5c0,0-7.9,11.7-17.7,15c-9.8,3.3-19.1,17.9-14.1,26.1c0,0,1-12.1,11.4-14
					c10.4-1.9,36.1-19.2,39.9-34.6c0,0-2.8,12.9-7.7,20c-4.9,7-21.9,21.1-16.8,31.7c0,0,2.4-14.8,21.6-22.2c0,0-5.6,38.6-16.5,46.2
					c0,0,15.7-4.2,23.3-44.4s6.1-31.4,6.1-31.4s4.1,14.8,1.9,25.5s-3.2,19.9-0.5,25.3c0,0,2.2-12.4,6.1-19.9c3.1-6.2,0-35.3,0-35.3
					s4.6,20,5,30.4s-0.5,16.1,3.7,26.1c4.2,10.1,12.5,18.6,12.5,18.6s-10-18.2-9-29.9c0.5-6.1,0.8-15.6,0.3-25.1c1,2,2.5,3.7,4.6,5
					c3.5,2.2,7.6,3.6,10.9,6.1c5.5,4.3,5.6,9.7,6.1,16c0,0,7.4-11.8-2.6-20.6c-8.7-7.6-16.8-11.4-20.5-21.1
					c-0.6-3.4-1.3-6.5-2.2-9.2c0,0,4.1,5.3,12.1,9.6c0.2,0.5,0.3,1.1,0.4,1.7c0.5,2,0.8,4.1,1.7,5.9c1.5,3.2,6.2,6,9.8,5.6
					c-1.3-0.2-3.2-1.6-4.1-2.5c-1.2-1.2-1.2-3.2-1.6-4.8c-0.2-1.1-0.5-2.3-0.9-3.5c0.5,0.2,1,0.4,1.5,0.5
					c12.6,4.2,29.9,18.5,32.1,24.6c0,0-7.3-19.8-25.7-27.3c0,0,8.1,2.6,19.6,3.2c0.1,0,0.2,0,0.3,0c0.5,0.2,1,0.5,1.5,0.8
					c2.7,1.5,3.8,4.1,4.2,7.1c0.4,3,1.7,5.5,4.4,7c2.3,1.3,5.7,0.6,8.2,0.5c-0.5-0.6-2.5-0.7-3.4-1.3
					C331.4,384.1,330.2,382.1,329.3,380.2z"/>
			</g>
			<g>
				<g>
					<g>
						<path fill="#4BA747" d="M503.3,158.6c-1.4-1.1-6.9-0.2-12.1-7.1c-5.7-7-11.4-4-13.1-3.6c-1.9,0.3-3.6,0.7-6.8-1.3
							c-3.3-2.1-8.2-1-11.6,1.5c-3.5,2.4-8.1,4-8.1,4c0,0,4.2,2.7,5.8,6.3c1.8,3.6,4,6.6,6.8,6.9c2.9,0.3,3.5,1.8,4,3.2
							c0.6,1.6,0.2,6.7,6,7.4c6.1,1.1,4.7,6.5,5.2,7.1c1,1.4,2.4,5.2,23.1,3.8c0.4,0.3,0.9,0.5,1.3,0.8c0-0.5,0-1,0-1.5
							C515.3,167.3,504.2,158.9,503.3,158.6z M502,183.9c-6.6-9.3-16.4-18-25.2-23.1c-8.7-5.4-16.5-7.2-16.4-7.3
							c-0.2,0.2,7.9,0.8,17.2,5.9C486.8,164.2,497.2,173.4,502,183.9z"/>
					</g>
				</g>
				<g>
					<g>
						<path fill="#4BA747" d="M482.3,233.2c-1.7,0.4-4.7,5-13.3,4.3c-9-0.4-10.5,5.9-11.4,7.4c-1,1.6-1.8,3.2-5.5,4.2
							c-3.7,1.1-6.1,5.5-6.5,9.6c-0.5,4.2-2.3,8.7-2.3,8.7c0,0,4.8-1.3,8.6-0.2c3.8,1,7.6,1.4,9.7-0.6c2.1-2,3.6-1.4,5-0.9
							c1.6,0.6,5.1,4.3,9.5,0.4c4.8-3.9,8,0.7,8.8,0.8c1.7,0.2,5.5,1.6,18.1-14.8c0.5-0.2,1-0.3,1.5-0.5c-0.4-0.4-0.7-0.7-1.1-1.1
							C496.8,230,483.2,232.8,482.3,233.2z M500.4,251c-11.3-1.2-24.3,0.4-34,3.6c-9.8,3-16.3,7.7-16.3,7.5c0,0.3,5.9-5.4,15.8-9
							C475.6,249.4,489.4,247.6,500.4,251z"/>
					</g>
				</g>
				<g>
					<g>
						<path fill="#4BA747" d="M563.2,180c1.1-1.4,6.6-2.1,9.7-10.1c3.6-8.3,9.9-6.9,11.6-7c1.9-0.2,3.6-0.3,6.2-3.1
							c2.6-2.9,7.6-3.1,11.5-1.7c4,1.4,8.9,1.7,8.9,1.7c0,0-3.3,3.7-3.9,7.7c-0.7,3.9-2.1,7.5-4.8,8.5c-2.7,1-2.9,2.6-3,4.2
							c-0.2,1.7,1.6,6.5-3.8,8.7c-5.6,2.7-2.8,7.5-3.1,8.3c-0.6,1.6-1,5.6-21.2,9.8c-0.4,0.4-0.7,0.7-1.1,1.1
							c-0.2-0.5-0.3-1-0.5-1.5C554,191.6,562.5,180.5,563.2,180z M571.3,204c3.9-10.7,11-21.7,18.1-29c7-7.5,14-11.3,13.9-11.4
							c0.2,0.2-7.4,2.9-15,10.3C580.7,181,573.1,192.6,571.3,204z"/>
					</g>
				</g>
				<g>
					<g>
						<path fill="#4BA747" d="M619,219.2c1.8,0,5.6,4,13.9,1.7c8.8-2.1,11.5,3.8,12.6,5.1c1.3,1.4,2.4,2.7,6.2,3.1
							c3.8,0.3,7.1,4.2,8.3,8.2c1.3,4,4,8.1,4,8.1c0,0-5-0.4-8.5,1.5c-3.6,1.8-7.2,2.8-9.6,1.3c-2.5-1.6-3.8-0.7-5.1,0.1
							c-1.4,0.9-4.2,5.2-9.2,2.2c-5.5-2.9-7.7,2.3-8.5,2.5c-1.6,0.5-5.1,2.6-20.6-11.1c-0.5-0.1-1-0.1-1.5-0.2
							c0.3-0.4,0.6-0.8,0.9-1.3C604.2,218.8,618.1,218.9,619,219.2z M604.7,240.1c10.9-3.4,23.9-4.3,34.1-3
							c10.2,1.1,17.5,4.4,17.5,4.2c0,0.3-6.8-4.2-17.2-5.8C628.7,233.7,614.8,234.6,604.7,240.1z"/>
					</g>
				</g>
				<g>
					<g>
						<path fill="#4BA747" d="M573.3,217.8c0.8-0.6,3.8,0,6.7-3.7c3.2-3.7,6.3-2,7.2-1.8c1,0.2,1.9,0.4,3.7-0.6
							c1.8-1.1,4.5-0.4,6.3,1c1.9,1.4,4.3,2.3,4.3,2.3c0,0-2.3,1.4-3.3,3.3c-1,1.9-2.3,3.6-3.8,3.6c-1.6,0.1-1.9,0.9-2.2,1.7
							c-0.4,0.8-0.2,3.6-3.4,3.9c-3.3,0.5-2.7,3.4-3,3.8c-0.6,0.7-1.4,2.8-12.6,1.7c-0.2,0.1-0.5,0.3-0.7,0.4c0-0.3,0-0.6,0-0.8
							C566.6,222.4,572.8,218,573.3,217.8z M573.6,231.6c3.7-5,9.2-9.5,14.1-12.2c4.8-2.8,9.1-3.6,9.1-3.7c0.1,0.1-4.3,0.3-9.5,2.9
							C582.2,221.1,576.4,226,573.6,231.6z"/>
					</g>
				</g>
				<g>
					<g>
						<path fill="#4BA747" d="M592.6,257.5c1-0.1,3.2,2,7.6,0.3c4.7-1.5,6.4,1.6,7,2.2c0.7,0.7,1.4,1.4,3.5,1.4c2.1,0,4,2,4.8,4.1
							c0.9,2.1,2.5,4.2,2.5,4.3c0,0-2.7,0-4.5,1.1c-1.9,1.1-3.8,1.8-5.2,1.1c-1.4-0.7-2.1-0.2-2.8,0.3c-0.7,0.5-2.1,3-4.9,1.6
							c-3.1-1.3-4.1,1.5-4.5,1.7c-0.9,0.4-2.6,1.6-11.7-5.2c-0.3,0-0.6,0-0.8,0c0.1-0.2,0.3-0.5,0.4-0.7
							C584.5,258,592.1,257.4,592.6,257.5z M585.6,269.5c5.8-2.3,12.8-3.3,18.4-3c5.6,0.2,9.7,1.7,9.7,1.6c0,0.1-3.9-2-9.6-2.4
							C598.4,265,590.9,266.1,585.6,269.5z"/>
					</g>
				</g>
				<g>
					<g>
						<path fill="#4BA747" d="M558.4,209.4c0-1-2.1-3.1-0.8-7.6c1.2-4.8-2-6.3-2.6-6.9c-0.8-0.7-1.5-1.3-1.6-3.4
							c-0.1-2.1-2.2-3.9-4.4-4.6c-2.2-0.7-4.4-2.3-4.4-2.2c0,0,0.2,2.7-0.9,4.6c-1,1.9-1.6,3.9-0.8,5.2c0.8,1.4,0.4,2.1-0.1,2.8
							c-0.5,0.8-2.9,2.2-1.3,5c1.5,3-1.3,4.2-1.4,4.6c-0.3,0.9-1.5,2.7,5.8,11.3c0,0.3,0.1,0.6,0.1,0.8c0.2-0.2,0.5-0.3,0.7-0.5
							C558.4,217.5,558.5,209.9,558.4,209.4z M546.8,217.1c1.9-5.9,2.6-13,2-18.5c-0.5-5.6-2.2-9.6-2.1-9.6c-0.1,0,2.2,3.7,3,9.4
							C550.6,204,549.9,211.6,546.8,217.1z"/>
					</g>
				</g>
				<g>
					<g>
						<path fill="#4BA747" d="M539.3,170.3c-0.3-0.9-3.1-2.2-3.4-6.9c-0.5-4.9-4-5.2-4.9-5.5c-1-0.4-1.8-0.7-2.7-2.6
							c-0.9-1.9-3.4-2.9-5.7-2.8c-2.3,0.1-4.9-0.6-4.9-0.6c0,0,1.1,2.5,0.8,4.6c-0.3,2.1-0.1,4.2,1.1,5.2c1.2,1,1.1,1.9,0.9,2.7
							c-0.2,0.9-1.9,3.1,0.5,5.2c2.5,2.3,0.2,4.4,0.3,4.8c0,0.9-0.4,3.1,9.4,8.6c0.1,0.2,0.2,0.5,0.4,0.8c0.2-0.2,0.3-0.5,0.5-0.7
							C542.1,177.8,539.6,170.7,539.3,170.3z M531.1,181.4c-0.2-6.2-2.1-13.1-4.6-18.1c-2.4-5-5.4-8.2-5.3-8.2
							c-0.1,0,3.4,2.7,6.1,7.8C530,167.9,532.1,175.2,531.1,181.4z"/>
					</g>
				</g>
				<g>
					<g>
						<path fill="#4BA747" d="M508.7,216.1c-0.9-0.4-3.7,0.6-7.2-2.5c-3.8-3.1-6.5-0.9-7.4-0.5c-1,0.4-1.8,0.8-3.8,0
							c-2-0.8-4.5,0.3-6,2c-1.6,1.7-3.9,3-3.9,3c0,0,2.5,1,3.8,2.8c1.3,1.7,2.9,3.1,4.4,2.9c1.6-0.2,2.1,0.6,2.5,1.3
							c0.5,0.8,0.8,3.6,4,3.3c3.4-0.1,3.2,3,3.6,3.2c0.7,0.6,1.8,2.5,12.7-0.5c0.3,0.1,0.5,0.2,0.8,0.3c0-0.3-0.1-0.6-0.1-0.8
							C516,219.5,509.2,216.2,508.7,216.1z M510.7,229.8c-4.5-4.3-10.7-7.9-16-9.7c-5.2-1.9-9.6-2-9.6-2.1c-0.1,0.1,4.3-0.4,9.8,1.3
							C500.5,220.8,507,224.7,510.7,229.8z"/>
					</g>
				</g>
				<g>
					<g>
						<path fill="#4BA747" d="M502.8,261.5c-0.6,0.8-0.2,3.8-4.1,6.5c-3.9,3-2.3,6.2-2.2,7.1c0.2,1,0.3,2-0.8,3.7
							c-1.2,1.7-0.7,4.4,0.6,6.3c1.3,1.9,2.1,4.5,2.1,4.5c0,0,1.5-2.2,3.5-3.1c2-0.9,3.7-2.1,3.8-3.6c0.2-1.6,1-1.9,1.8-2.1
							c0.9-0.3,3.6,0,4.1-3.1c0.7-3.3,3.6-2.5,4-2.7c0.8-0.5,2.9-1.2,2.4-12.5c0.1-0.2,0.3-0.5,0.5-0.7c-0.3,0-0.6,0-0.8,0
							C507.8,255.1,503.1,261,502.8,261.5z M516.6,262.6c-5.2,3.4-10,8.6-13,13.4c-3,4.7-4.1,8.9-4.2,8.8c0.1,0.1,0.6-4.3,3.5-9.3
							C505.7,270.6,510.8,265,516.6,262.6z"/>
					</g>
				</g>
				<path fill="#A96F31" d="M579.7,373.2c0,0,6.6,2.5,15.9,3c9.3,0.5,18.6,5.2,22.1,8.6c0,0-3.3-10-20.5-14.6s-31.8-6.2-36.1-16.1
					c0,0-6.8-12.8-5.9-50.4c5.9-42.9,55.9-64.5,55.9-64.5c-28,1.8-45.2,19-53.5,30.2c5.9-52.3,17-74.2,17-74.2s-22.8,28.1-25.6,53.9
					c0,0-17.9-60.7-54.2-75.1c0,0,30.1,39.2,39.6,75.9c-7.9-3.1-24.5-7.1-47.2,1c0,0,37.6-1.9,50,18.7c0,0.2,0,0.3,0,0.5
					c0,40.7-6.1,82.9-6.1,82.9s-11,15.5-25.9,20.2c-14.8,4.7-32,19.2-22.2,35.1c0,0-3-15.9,9.8-19.7c12.8-3.7,24.6-4.9,28.8-10.3
					c0,0-6.4,10.9-14.4,14c-8,3.1-15.5,16.7-11.4,24.3c0,0,0.8-11.2,9.3-13c8.4-1.8,29.3-17.9,32.4-32.2c0,0-2.3,12-6.2,18.6
					s-17.8,19.7-13.6,29.5c0,0,1.9-13.7,17.5-20.6c0,0-4.5,35.8-13.4,43c0,0,12.8-3.9,18.9-41.2c6.2-37.3,4.9-29.1,4.9-29.1
					s3.4,13.8,1.6,23.7c-1.8,9.9-2.6,18.5-0.4,23.5c0,0,1.8-11.5,4.9-18.5c2.6-5.7,0-32.8,0-32.8s3.7,18.6,4,28.2
					c0.3,9.7-0.4,14.9,3,24.3c3.4,9.4,10.1,17.3,10.1,17.3s-8.1-16.9-7.3-27.8s0.9-32.9-2.8-45.4c0,0,5.2,7.8,15.4,11.7
					c10.3,3.9,24.3,17.2,26.1,22.9C600.6,398.5,594.6,380.1,579.7,373.2z"/>
			</g>
			<g>
				<g>
					<g>
						<path fill="#4BA747" d="M768.7,196.8c-1.4-1.1-6.9-0.2-12.1-7.1c-5.7-7-11.4-4-13.1-3.6c-1.9,0.3-3.6,0.7-6.8-1.3
							c-3.3-2.1-8.2-1-11.6,1.5c-3.5,2.4-8.1,4-8.1,4c0,0,4.2,2.7,5.8,6.3c1.8,3.6,4,6.6,6.8,6.9c2.9,0.3,3.5,1.8,4,3.2
							c0.6,1.6,0.2,6.7,6,7.4c6.1,1.1,4.7,6.5,5.2,7.1c1,1.4,2.4,5.2,23.1,3.8c0.4,0.3,0.9,0.5,1.3,0.8c0-0.5,0-1,0-1.5
							C780.7,205.5,769.6,197.1,768.7,196.8z M767.3,222.1c-6.6-9.3-16.4-18-25.2-23.1c-8.7-5.4-16.5-7.2-16.4-7.3
							c-0.2,0.2,7.9,0.8,17.2,5.9C752.2,202.4,762.6,211.6,767.3,222.1z"/>
					</g>
				</g>
				<g>
					<g>
						<path fill="#4BA747" d="M848.8,241.7c1.6-0.6,6.7,1.6,13.6-3.6c7.3-5.2,12-0.8,13.6,0c1.7,0.8,3.3,1.6,6.9,0.5
							c3.7-1.1,8.1,1.2,10.7,4.5c2.7,3.2,6.7,6,6.7,6.1c0,0-4.8,1.5-7.3,4.5c-2.6,3-5.6,5.3-8.4,4.8c-2.9-0.5-3.8,0.8-4.7,2
							c-1,1.3-2,6.4-7.7,5.5c-6.2-0.6-6.3,5-7,5.5c-1.3,1.1-3.7,4.3-23.3-2.5c-0.5,0.1-1,0.3-1.5,0.4c0.1-0.5,0.2-1,0.4-1.5
							C834.8,246.9,847.8,241.8,848.8,241.7z M843.3,266.5c8.8-7.2,20.6-12.9,30.5-15.5c9.9-2.8,17.9-2.5,17.8-2.6
							c0.1,0.2-7.9-1.3-18.1,1.1C863.2,251.5,850.7,257.6,843.3,266.5z"/>
					</g>
				</g>
				<g>
					<g>
						<path fill="#4BA747" d="M816.6,219.9c1.1-0.8,5.3-0.3,9.2-5.7c4.3-5.5,8.7-3.3,10-3c1.4,0.2,2.8,0.5,5.2-1.2
							c2.5-1.7,6.3-0.9,9,0.9c2.7,1.8,6.3,3,6.3,3c0,0-3.2,2.2-4.4,5c-1.3,2.8-3,5.2-5.2,5.4c-2.2,0.3-2.7,1.4-3,2.6
							c-0.4,1.2,0,5.2-4.5,5.8c-4.7,0.9-3.5,5.1-3.9,5.6c-0.7,1.1-1.8,4-17.8,3.3c-0.3,0.2-0.7,0.4-1,0.6c0-0.4,0-0.8-0.1-1.2
							C807.5,226.9,816,220.2,816.6,219.9z M818.1,239.5c4.9-7.3,12.3-14.2,19.1-18.3c6.7-4.3,12.7-5.8,12.6-5.9
							c0.1,0.2-6.1,0.8-13.2,4.9C829.5,224,821.6,231.3,818.1,239.5z"/>
					</g>
				</g>
				<path fill="#A96F31" d="M853.5,374.8c0,0-2.5-7.4-15.3-10.9c-12.8-3.4-23.7-4.6-26.9-12c0,0-5.9-11.1-4.1-44.4
					c9.6-31.5,46.3-47.3,46.3-47.3c-22.1,1.4-36.4,14.1-44.1,23.6c4.5-35.2,12-50.1,12-50.1s-17,21-19,40.1c0,0-13.4-45.2-40.3-55.9
					c0,0,31.6,41.3,31.6,71.5s-4.5,61.7-4.5,61.7s-8.2,11.6-19.3,15c-11,3.5-23.8,14.3-16.5,26.2c0,0-2.2-11.8,7.3-14.6
					c5.3-1.6,11-2.4,16.2-4.4c4.7-1.8,8.4-5.7,13.2-7.9c0.2,3.4-0.2,6.2-1.1,9.2c-1.3,4.3-2.7,8.1-5.3,11.8
					c-1.6,2.3-3.3,4.7-4.2,7.4c-0.9,2.6,0.1,4.5-0.2,6.8c0,0,1.4-10.2,13.1-15.3c0,0-3.4,26.7-10,32c0,0,9.5-2.9,14.1-30.7
					c1.2-7.4,2.3-14.9,3.7-22.3c0,1,3.1,2.6,3.9,4.1c5.4,10,2,22.1,5.8,32.6c2.5,7,7.6,12.9,7.6,12.9s-6-12.6-5.4-20.7
					c0.6-8.1,0.7-24.5-2.1-33.8c0,0,3.8,5.8,11.5,8.7c7.6,2.9,18.1,12.8,19.4,17c0,0-4.4-13.7-15.5-18.9c0,0,4.9,1.8,11.8,2.2
					C844,368.8,850.9,372.3,853.5,374.8z"/>
			</g>
			<g>
				<g>
					<g>
						<path fill="#4BA747" d="M1016.5,253.1c0.9-0.8,4.8-0.7,7.9-5.9c3.5-5.3,7.7-3.6,8.9-3.5c1.3,0.1,2.6,0.2,4.7-1.4
							c2.1-1.7,5.6-1.3,8.2,0.2c2.6,1.4,6,2.2,6,2.3c0,0-2.7,2.2-3.6,4.8c-1,2.6-2.3,4.9-4.3,5.3c-2,0.4-2.3,1.5-2.6,2.5
							c-0.3,1.1,0.4,4.7-3.6,5.6c-4.2,1.2-2.8,4.9-3.2,5.4c-0.6,1.1-1.3,3.8-15.9,4.3c-0.3,0.2-0.6,0.4-0.9,0.6
							c-0.1-0.4-0.1-0.7-0.1-1.1C1008.7,260.1,1015.9,253.4,1016.5,253.1z M1019.2,270.8c3.9-7,10.2-13.8,16-18
							c5.7-4.4,11.1-6.2,11-6.3c0.1,0.1-5.5,1.2-11.6,5.4C1028.4,255.9,1021.8,263.1,1019.2,270.8z"/>
					</g>
				</g>
				<g>
					<g>
						<path fill="#4BA747" d="M990.4,235.8c-1.4-1.1-6.9-0.2-12.1-7.1c-5.7-7-11.4-4-13.1-3.6c-1.9,0.3-3.6,0.7-6.8-1.3
							c-3.3-2.1-8.2-1-11.6,1.5c-3.5,2.4-8.1,4-8.1,4c0,0,4.2,2.7,5.8,6.3c1.8,3.6,4,6.6,6.8,6.9c2.9,0.3,3.5,1.8,4,3.2
							c0.6,1.6,0.2,6.7,6,7.4c6.1,1.1,4.7,6.5,5.2,7.1c1,1.4,2.4,5.2,23.1,3.8c0.4,0.3,0.9,0.5,1.3,0.8c0-0.5,0-1,0-1.5
							C1002.4,244.6,991.2,236.1,990.4,235.8z M989,261.2c-6.6-9.3-16.4-18-25.2-23.1c-8.7-5.4-16.5-7.2-16.4-7.3
							c-0.2,0.2,7.9,0.8,17.2,5.9C973.8,241.4,984.3,250.6,989,261.2z"/>
					</g>
				</g>
				<path fill="#A96F31" d="M1007.9,355.9c0,0.7,2.2,1.8,2.7,2.8c3.8,7,1.4,15.6,4.1,22.9c1.8,4.9,5.3,9,5.3,9s-4.2-8.9-3.8-14.5
					c0.4-5.7,0.5-17.2-1.5-23.7c0,0,2.7,4.1,8.1,6.1c5.4,2,12.7,9,13.6,12c0,0-3.1-9.6-10.9-13.3c0,0,3.4,1.3,8.3,1.5
					c4.9,0.3,9.7,2.7,11.6,4.5c0,0-1.7-5.2-10.7-7.6c-9-2.4-16.6-3.2-18.9-8.4c0,0-5.2-9.7-2.3-40.1s9.3-43.1,9.3-43.1
					s-11.9,14.7-13.4,28.2c0,0-9.4-31.8-28.3-39.3c0,0,22.2,29,22.2,50.3c0,21.3-3.2,43.4-3.2,43.4s-5.8,8.1-13.5,10.6
					c-7.8,2.4-16.7,10.1-11.6,18.4c0,0-1.6-8.3,5.1-10.3c3.8-1.1,7.7-1.7,11.4-3.1c3.3-1.3,5.9-4,9.2-5.5c0.1,2.4-0.2,4.3-0.8,6.4
					c-0.9,3-1.9,5.7-3.7,8.3c-1.1,1.6-2.3,3.3-3,5.2c-0.6,1.8,0.1,3.2-0.1,4.8c0,0,1-7.2,9.2-10.8c0,0-2.4,18.8-7,22.5
					c0,0,6.7-2,9.9-21.6C1006.2,366.3,1006.9,361,1007.9,355.9z"/>
			</g>
			<g>
				<g>
					<g>
						<path fill="#4BA747" d="M1174.3,256.3c0.6-1.7,5.7-4,6.2-12.6c0.9-9,7.4-9.5,9-10.2c1.7-0.7,3.4-1.4,4.9-4.8
							c1.6-3.5,6.3-5.3,10.5-5.1c4.2,0.1,9-1.1,9-1c0,0-2,4.6-1.4,8.5c0.5,3.9,0.3,7.8-2,9.5c-2.3,1.8-2,3.4-1.6,4.9
							c0.3,1.6,3.5,5.7-0.9,9.5c-4.5,4.2-0.4,8-0.5,8.8c0,1.7,0.8,5.6-17.3,15.8c-0.2,0.5-0.5,0.9-0.7,1.4c-0.3-0.4-0.6-0.8-0.9-1.3
							C1169,270.2,1173.7,257.1,1174.3,256.3z M1189.3,276.8c0.4-11.4,3.9-24,8.5-33.2c4.4-9.3,10-15,9.8-15.1
							c0.3,0.1-6.2,5-11.2,14.3C1191.2,252,1187.5,265.4,1189.3,276.8z"/>
					</g>
				</g>
				<path fill="#A96F31" d="M1215.9,361.1c4.9,0.3,9.7,2.7,11.6,4.5c0,0-1.7-5.2-10.7-7.6c-9-2.4-16.6-3.2-18.9-8.4
					c0,0-2.5-4.8-3-18.2c0.3-7.6,1.1-15.1,0.8-22.7c-0.3-7.5-2.8-14.1-4.4-21.4c-2.1-9.3-0.1-20.7,0.2-30.2
					c-3.1,7.7-5.5,16.9-7.1,25.1c-1.4,7-0.8,14.2,0.2,21.1c1,6.7,0.8,13,0.4,19.8c-0.6,8.6-1.3,17.3-2.6,25.8c0,0-5.8,8.1-13.5,10.6
					s-16.7,10.1-11.6,18.4c0,0-1.6-8.3,5.1-10.3c3.8-1.1,7.7-1.7,11.4-3.1c3.3-1.3,5.9-4,9.2-5.5c0,0,6.5,0.3,8.7,9.3
					s2.9,21.5,10.5,24.7c0,0-0.6-0.5-1.3-1.7c0.8,1,1.3,1.7,1.3,1.7s-4.2-8.9-3.8-14.5c0.4-5.7,0.5-17.2-1.5-23.7
					c0,0,2.7,4.1,8.1,6.1c5.4,2,12.7,9,13.6,12c0,0,0.1-7-4.4-11.9C1214.6,361.1,1215.3,361.1,1215.9,361.1z"/>
			</g>
		</g>
		<g>
			<rect x="96" y="776.3" fill="#E5CDAD" width="1208" height="111.6"/>
			<g>
				<g>
					<path fill="#AACB38" d="M482.9,577.5c-3.8-1.4-7.6-1.9-11.3-1.9c-4.5,0-8.8,0.9-12.9,1.7c-3.8,0.8-7.5,1.9-11.2,3
						c0.9-0.3,6.8,4.6,7.2,5.1c6.8,6,10,13,15.9,18.3c4.3,3.9,9,7.3,14.6,9.6c2.3,0.9,4.8,1.6,7.2,2c1.3,0.2,2.6,0.3,3.9,0.3
						c0.9,0,3.6,0.4,4.2-0.2C509.9,606.3,501.5,584.1,482.9,577.5z M498.7,612.2c-6.3-8.4-16.1-17.6-25.5-22.9
						c-9.2-5.6-17.9-7.5-17.8-7.6c-0.2,0.2,8.8,0.7,18.7,6C484,592.7,494.6,602.4,498.7,612.2z"/>
				</g>
				<g>
					<path fill="#AACB38" d="M461.4,675.3c-3.4,2.3-6,5.1-8.1,8.1c-2.6,3.7-4.4,7.7-6.1,11.5c-1.6,3.6-2.9,7.2-4,10.9
						c0.3-1,7.7-2.9,8.3-2.9c8.8-2,16.4-0.5,24.1-2.2c5.6-1.2,11.2-3.1,16.3-6.4c2.1-1.4,4.1-2.9,5.8-4.7c0.9-0.9,1.8-1.9,2.6-3
						c0.5-0.7,2.4-2.7,2.2-3.6C500.5,670.1,477.6,664.1,461.4,675.3z M498.8,682.6c-10.5,0.2-23.7,2.9-33.5,7.4
						c-9.9,4.2-16.5,10.2-16.5,10c0,0.3,5.7-6.8,15.8-11.7C474.3,683.3,488.4,680.3,498.8,682.6z"/>
				</g>
				<g>
					<path fill="#AACB38" d="M639.7,657.5c3.8,1.4,7.1,3.5,9.8,5.9c3.4,3,6.1,6.4,8.7,9.7c2.4,3.1,4.5,6.3,6.5,9.6
						c-0.5-0.9-8.1-1-8.8-0.8c-9,0.1-16,3.4-24,3.7c-5.8,0.2-11.6-0.3-17.3-2.2c-2.4-0.8-4.7-1.9-6.8-3.2c-1.1-0.7-2.2-1.5-3.2-2.3
						c-0.7-0.6-3-2-3-2.9C600.5,661.8,621.3,650.5,639.7,657.5z M605.2,673.6c10.2-2.3,23.7-2.9,34.3-0.9
						c10.7,1.7,18.5,5.9,18.5,5.7c0,0.3-7.2-5.2-18.1-7.5C629.1,668.3,614.7,668.8,605.2,673.6z"/>
				</g>
				<g>
					<path fill="#AACB38" d="M581.2,597.9c3.5-2.2,7.1-3.4,10.7-4.1c4.5-0.9,8.8-0.9,12.9-0.9c3.9,0,7.8,0.3,11.6,0.8
						c-1-0.1-5.8,5.8-6,6.4c-5.4,7.2-7.2,14.7-11.9,21.1c-3.4,4.7-7.4,8.9-12.4,12.3c-2.1,1.4-4.3,2.5-6.7,3.4
						c-1.2,0.5-2.5,0.8-3.8,1.1c-0.9,0.2-3.5,1.1-4.2,0.6C560.4,631.5,564.3,608.1,581.2,597.9z M572.6,635.1
						c4.5-9.5,12.3-20.4,20.4-27.6c7.9-7.4,16.1-10.9,15.9-11c0.3,0.2-8.5,2.5-17.1,9.6C583.1,613,574.7,624.6,572.6,635.1z"/>
				</g>
				<g>
					<path fill="#AACB38" d="M582.9,648.2c2.1-0.7,4.1-1,6.1-0.9c2.5,0.1,4.7,0.6,6.9,1.1c2.1,0.5,4.1,1.1,6,1.7
						c-0.5-0.2-3.7,2.4-3.9,2.7c-3.7,3.2-5.5,6.9-8.7,9.8c-2.3,2.1-4.9,3.9-8,5c-1.3,0.5-2.6,0.8-3.9,1c-0.7,0.1-1.4,0.1-2.1,0.1
						c-0.5,0-2,0.2-2.3-0.2C568,663.5,572.8,651.6,582.9,648.2z M574,666.8c3.5-4.5,8.9-9.3,14-12.2c5-3,9.8-3.9,9.7-4
						c0.1,0.1-4.8,0.3-10.1,3.1C582.2,656.4,576.4,661.6,574,666.8z"/>
				</g>
				<g>
					<path fill="#AACB38" d="M534.3,595.6c-1.3-1.8-2.8-3.2-4.4-4.3c-2-1.4-4.2-2.3-6.3-3.2c-1.9-0.8-3.9-1.5-5.9-2.1
						c0.5,0.1,1.6,4.1,1.6,4.5c1.2,4.7,0.4,8.9,1.4,13c0.7,3,1.8,6,3.6,8.8c0.7,1.1,1.6,2.2,2.6,3.1c0.5,0.5,1.1,0.9,1.6,1.4
						c0.4,0.3,1.5,1.3,1.9,1.2C537.4,616.7,540.5,604.2,534.3,595.6z M530.6,615.9c-0.2-5.7-1.8-12.8-4.3-18
						c-2.4-5.3-5.7-8.9-5.5-8.9c-0.2,0,3.7,3,6.4,8.4C530.1,602.6,531.8,610.2,530.6,615.9z"/>
				</g>
				<g>
					<path fill="#AACB38" d="M495.9,646.3c-2.2-0.1-4.3,0.3-6.1,0.9c-2.3,0.8-4.4,1.9-6.3,3c-1.8,1-3.6,2.2-5.2,3.4
						c0.4-0.3,4.3,1.2,4.6,1.4c4.5,1.9,7.3,5,11.2,6.8c2.8,1.3,5.8,2.3,9.1,2.5c1.3,0.1,2.7,0,4.1-0.2c0.7-0.1,1.4-0.3,2.1-0.5
						c0.5-0.2,1.9-0.4,2.1-0.8C514.5,656.6,506.5,646.6,495.9,646.3z M509.8,661.5c-4.6-3.3-11.2-6.4-16.9-7.6
						c-5.7-1.4-10.5-0.9-10.4-1c-0.1,0.1,4.7-1.1,10.6,0C498.9,653.9,506,657.2,509.8,661.5z"/>
				</g>
				<g>
					<path fill="#AACB38" d="M496.5,706.9c-0.4,2.2-0.4,4.2,0,6.2c0.4,2.4,1.3,4.6,2.1,6.7c0.8,2,1.7,3.9,2.6,5.7
						c-0.3-0.5,1.8-4,2.1-4.3c2.6-4.1,6.1-6.5,8.4-10.1c1.7-2.6,3.1-5.4,3.8-8.7c0.3-1.3,0.4-2.7,0.4-4c0-0.7-0.1-1.4-0.2-2.1
						c-0.1-0.5-0.1-2-0.5-2.2C509.4,689.9,498.4,696.4,496.5,706.9z M513.6,695.4c-3.9,4.1-7.9,10.2-10,15.6
						c-2.2,5.4-2.4,10.2-2.5,10.2c0.1,0.1-0.4-4.8,1.6-10.5C504.5,705,508.7,698.4,513.6,695.4z"/>
				</g>
				<g>
					<path fill="#AACB38" d="M556.5,631.9c-0.7-2.1-1.8-3.9-3.1-5.4c-1.6-1.9-3.4-3.4-5.1-4.8c-1.7-1.3-3.4-2.5-5.1-3.6
						c0.5,0.3,0.4,4.4,0.3,4.8c-0.2,4.9-2,8.6-2.2,12.9c-0.2,3.1,0.1,6.3,1,9.4c0.4,1.3,1,2.5,1.6,3.7c0.4,0.6,0.8,1.2,1.2,1.8
						c0.3,0.4,1.1,1.6,1.5,1.7C553.8,653,560.2,641.9,556.5,631.9z M547.5,650.4c1.4-5.5,1.8-12.8,0.8-18.5c-0.8-5.8-3-10.1-2.9-10
						c-0.2,0,2.7,3.9,3.9,9.9C550.6,637.5,550.2,645.3,547.5,650.4z"/>
				</g>
				<g>
					<path fill="#AACB38" d="M604.2,693.9c2.1,0.7,3.9,1.8,5.4,3.1c1.9,1.6,3.4,3.4,4.8,5.1c1.3,1.6,2.5,3.4,3.6,5.1
						c-0.3-0.5-4.4-0.4-4.8-0.3c-4.9,0.2-8.6,2.1-12.9,2.3c-3.1,0.2-6.3,0-9.4-1c-1.3-0.4-2.6-0.9-3.7-1.6c-0.6-0.4-1.2-0.8-1.8-1.2
						c-0.4-0.3-1.7-1.1-1.7-1.5C583.1,696.7,594.1,690.3,604.2,693.9z M585.7,703c5.5-1.4,12.8-1.9,18.5-0.9
						c5.8,0.8,10.1,3,10.1,2.9c0,0.2-4-2.7-9.9-3.8C598.6,699.8,590.8,700.3,585.7,703z"/>
				</g>
				<path fill="#72491D" d="M579.7,807.4c0,0,6.6,2.5,15.9,3c9.3,0.5,18.6,5.2,22.1,8.6c0,0-3.3-10-20.5-14.6s-31.8-6.2-36.1-16.1
					c0,0-6.8-12.8-5.9-50.4c5.9-42.9,55.9-64.5,55.9-64.5c-28,1.8-45.2,19-53.5,30.2c5.9-52.3,17-74.2,17-74.2s-22.8,28.1-25.6,53.9
					c0,0-17.9-60.7-54.2-75.1c0,0,30.1,39.2,39.6,75.9c-7.9-3.1-24.5-7.1-47.2,1c0,0,37.6-1.9,50,18.7c0,0.2,0,0.3,0,0.5
					c0,40.7-6.1,82.9-6.1,82.9s-11,15.5-25.9,20.2c-14.8,4.7-32,19.2-22.2,35.1c0,0-3-15.9,9.8-19.7c12.8-3.7,24.6-4.9,28.8-10.3
					c0,0-6.4,10.9-14.4,14c-8,3.1-15.5,16.7-11.4,24.3c0,0,0.8-11.2,9.3-13c8.4-1.8,29.3-17.9,32.4-32.2c0,0-2.3,12-6.2,18.6
					s-17.8,19.7-13.6,29.5c0,0,1.9-13.7,17.5-20.6c0,0-4.5,35.8-13.4,43c0,0,12.8-3.9,18.9-41.2c6.2-37.3,4.9-29.1,4.9-29.1
					s3.4,13.8,1.6,23.7c-1.8,9.9-2.6,18.5-0.4,23.5c0,0,1.8-11.5,4.9-18.5c2.6-5.7,0-32.8,0-32.8s3.7,18.6,4,28.2
					c0.3,9.7-0.4,14.9,3,24.3c3.4,9.4,10.1,17.3,10.1,17.3s-8.1-16.9-7.3-27.8s0.9-32.9-2.8-45.4c0,0,5.2,7.8,15.4,11.7
					c10.3,3.9,24.3,17.2,26.1,22.9C600.6,832.7,594.6,814.3,579.7,807.4z"/>
			</g>
			<g>
				<g>
					<path fill="#AACB38" d="M749.5,619.7c-3.8-1.4-7.6-1.9-11.3-1.9c-4.5,0-8.8,0.9-12.9,1.7c-3.8,0.8-7.5,1.9-11.2,3
						c0.9-0.3,6.8,4.6,7.2,5.1c6.8,6,10,13,15.9,18.3c4.3,3.9,9,7.3,14.6,9.6c2.3,0.9,4.8,1.6,7.2,2c1.3,0.2,2.6,0.3,3.9,0.3
						c0.9,0,3.6,0.4,4.2-0.2C776.5,648.4,768.1,626.3,749.5,619.7z M765.3,654.4c-6.3-8.4-16.1-17.6-25.5-22.9
						c-9.2-5.6-17.9-7.5-17.8-7.6c-0.2,0.2,8.8,0.7,18.7,6C750.6,634.8,761.2,644.6,765.3,654.4z"/>
				</g>
				<g>
					<path fill="#AACB38" d="M870.2,670.2c4.1,0.1,7.8,1.1,11.2,2.5c4.2,1.7,7.8,4.1,11.3,6.4c3.2,2.2,6.3,4.6,9.2,7
						c-0.7-0.7-8,1.7-8.6,2c-8.5,3-14.1,8.3-21.6,11c-5.4,2-11.1,3.4-17.2,3.4c-2.5,0-5-0.3-7.5-0.8c-1.3-0.3-2.6-0.7-3.8-1.2
						c-0.8-0.3-3.5-1-3.8-1.8C834.4,686.7,850.5,669.3,870.2,670.2z M842.5,696.4c9-5.5,21.5-10.2,32.3-11.7
						c10.7-1.8,19.4-0.2,19.3-0.4c0.1,0.3-8.5-2.6-19.6-1.4C863.5,683.8,850,688.9,842.5,696.4z"/>
				</g>
				<g>
					<path fill="#AACB38" d="M828.5,646.5c2.4-1.1,4.7-1.5,7-1.6c2.9-0.1,5.6,0.2,8.2,0.6c2.4,0.4,4.8,0.9,7.2,1.5
						c-0.6-0.2-4.1,3.1-4.4,3.5c-4,4-5.8,8.6-9.3,12.2c-2.5,2.6-5.4,4.9-8.9,6.6c-1.4,0.7-2.9,1.2-4.5,1.5c-0.8,0.2-1.6,0.3-2.5,0.4
						c-0.6,0-2.3,0.4-2.7,0C812.6,665.6,817,651.3,828.5,646.5z M819.8,669c3.6-5.5,9.5-11.7,15.2-15.4c5.6-3.9,11-5.4,10.9-5.5
						c0.1,0.1-5.6,0.8-11.5,4.5C828.4,656,822.1,662.6,819.8,669z"/>
				</g>
				<path fill="#72491D" d="M853.5,807.5c0,0-2.5-7.4-15.3-10.9c-12.8-3.4-23.7-4.6-26.9-12c0,0-5.9-11.1-4.1-44.4
					c9.6-31.5,46.3-47.3,46.3-47.3c-22.1,1.4-36.4,14.1-44.1,23.6c4.5-35.2,12-50.1,12-50.1s-17,21-19,40.1c0,0-13.4-45.2-40.3-55.9
					c0,0,31.6,41.3,31.6,71.5s-4.5,61.7-4.5,61.7s-8.2,11.6-19.3,15c-11,3.5-23.8,14.3-16.5,26.2c0,0-2.2-11.8,7.3-14.6
					c5.3-1.6,11-2.4,16.2-4.4c4.7-1.8,8.4-5.7,13.2-7.9c0.2,3.4-0.2,6.2-1.1,9.2c-1.3,4.3-2.7,8.1-5.3,11.8
					c-1.6,2.3-3.3,4.7-4.2,7.4c-0.9,2.6,0.1,4.5-0.2,6.8c0,0,1.4-10.2,13.1-15.3c0,0-3.4,26.7-10,32c0,0,9.5-2.9,14.1-30.7
					c1.2-7.4,2.3-14.9,3.7-22.3c0,1,3.1,2.6,3.9,4.1c5.4,10,2,22.1,5.8,32.6c2.5,7,7.6,12.9,7.6,12.9s-6-12.6-5.4-20.7
					c0.6-8.1,0.7-24.5-2.1-33.8c0,0,3.8,5.8,11.5,8.7c7.6,2.9,18.1,12.8,19.4,17c0,0-4.4-13.7-15.5-18.9c0,0,4.9,1.8,11.8,2.2
					C844,801.4,850.9,805,853.5,807.5z"/>
			</g>
			<g>
				<g>
					<path fill="#AACB38" d="M970.2,663.6c-3.9-1.2-7.8-1.4-11.4-1.1c-4.5,0.4-8.7,1.5-12.7,2.6c-3.8,1.1-7.4,2.4-10.9,3.8
						c0.9-0.4,7.1,4.1,7.6,4.6c7.2,5.5,10.9,12.3,17.1,17.2c4.5,3.6,9.5,6.6,15.3,8.5c2.4,0.8,4.9,1.3,7.4,1.5
						c1.3,0.1,2.6,0.1,3.9,0.1c0.9-0.1,3.6,0.2,4.2-0.5C999.2,690.4,989.2,668.9,970.2,663.6z M988.4,697.1
						c-6.8-8-17.3-16.4-27.1-21.1c-9.6-5-18.4-6.2-18.3-6.4c-0.2,0.2,8.9,0.1,19,4.7C972.3,678.6,983.6,687.6,988.4,697.1z"/>
				</g>
				<g>
					<path fill="#AACB38" d="M1029.7,682.9c2.4-1.1,4.7-1.5,7-1.6c2.9-0.1,5.6,0.2,8.2,0.6c2.4,0.4,4.8,0.9,7.2,1.5
						c-0.6-0.2-4.1,3.1-4.4,3.5c-4,4-5.8,8.6-9.3,12.2c-2.5,2.6-5.4,4.9-8.9,6.6c-1.4,0.7-2.9,1.2-4.5,1.5c-0.8,0.2-1.6,0.3-2.5,0.4
						c-0.6,0-2.3,0.4-2.7,0C1013.8,702.1,1018.2,687.8,1029.7,682.9z M1021.1,705.4c3.6-5.5,9.5-11.7,15.2-15.4
						c5.6-3.9,11-5.4,10.9-5.5c0.1,0.1-5.6,0.8-11.5,4.5C1029.6,692.5,1023.3,699,1021.1,705.4z"/>
				</g>
				<path fill="#72491D" d="M1007.9,793.2c0,0.7,2.2,1.8,2.7,2.8c3.8,7,1.4,15.6,4.1,22.9c1.8,4.9,5.3,9,5.3,9s-4.2-8.9-3.8-14.5
					c0.4-5.7,0.5-17.2-1.5-23.7c0,0,2.7,4.1,8.1,6.1c5.4,2,12.7,9,13.6,12c0,0-3.1-9.6-10.9-13.3c0,0,3.4,1.3,8.3,1.5
					c4.9,0.3,9.7,2.7,11.6,4.5c0,0-1.7-5.2-10.7-7.6c-9-2.4-16.6-3.2-18.9-8.4c0,0-5.2-9.7-2.3-40.1c2.9-30.4,9.3-43.1,9.3-43.1
					s-11.9,14.7-13.4,28.2c0,0-9.4-31.8-28.3-39.3c0,0,22.2,29,22.2,50.3c0,21.3-3.2,43.4-3.2,43.4s-5.8,8.1-13.5,10.6
					c-7.8,2.4-16.7,10.1-11.6,18.4c0,0-1.6-8.3,5.1-10.3c3.8-1.1,7.7-1.7,11.4-3.1c3.3-1.3,5.9-4,9.2-5.5c0.1,2.4-0.2,4.3-0.8,6.4
					c-0.9,3-1.9,5.7-3.7,8.3c-1.1,1.6-2.3,3.3-3,5.2c-0.6,1.8,0.1,3.2-0.1,4.8c0,0,1-7.2,9.2-10.8c0,0-2.4,18.8-7,22.5
					c0,0,6.7-2,9.9-21.6C1006.2,803.6,1006.9,798.4,1007.9,793.2z"/>
			</g>
			<g>
				<g>
					<path fill="#AACB38" d="M1187.3,669.2c2.7-3.1,5.8-5.3,9-7c4-2.1,8.2-3.4,12.1-4.6c3.7-1.1,7.5-1.9,11.3-2.6
						c-1,0.1-3.8,7.3-3.9,7.9c-3.1,8.5-2.6,16.2-5.2,23.7c-1.9,5.5-4.4,10.7-8.3,15.4c-1.6,1.9-3.4,3.7-5.4,5.2
						c-1.1,0.8-2.2,1.5-3.3,2.2c-0.8,0.4-3,2.1-3.8,1.8C1177.2,707.3,1174.1,683.9,1187.3,669.2z M1189.9,707.3
						c1.5-10.4,5.8-23.1,11.5-32.3c5.4-9.3,12.2-15.1,12-15.2c0.3,0.1-7.4,4.8-13.5,14.2C1193.5,683,1188.8,696.7,1189.9,707.3z"/>
				</g>
				<path fill="#72491D" d="M1215.9,793.2c4.9,0.3,9.7,2.7,11.6,4.5c0,0-1.7-5.2-10.7-7.6c-9-2.4-16.6-3.2-18.9-8.4
					c0,0-2.5-4.8-3-18.2c0.3-7.6,1.1-15.1,0.8-22.7c-0.3-7.5-2.8-14.1-4.4-21.4c-2.1-9.3-0.1-20.7,0.2-30.2
					c-3.1,7.7-5.5,16.9-7.1,25.1c-1.4,7-0.8,14.2,0.2,21.1c1,6.7,0.8,13,0.4,19.8c-0.6,8.6-1.3,17.3-2.6,25.8c0,0-5.8,8.1-13.5,10.6
					s-16.7,10.1-11.6,18.4c0,0-1.6-8.3,5.1-10.3c3.8-1.1,7.7-1.7,11.4-3.1c3.3-1.3,5.9-4,9.2-5.5c0,0,6.5,0.3,8.7,9.3
					s2.9,21.5,10.5,24.7c0,0-0.6-0.5-1.3-1.7c0.8,1,1.3,1.7,1.3,1.7s-4.2-8.9-3.8-14.5c0.4-5.7,0.5-17.2-1.5-23.7
					c0,0,2.7,4.1,8.1,6.1c5.4,2,12.7,9,13.6,12c0,0,0.1-7-4.4-11.9C1214.6,793.1,1215.3,793.2,1215.9,793.2z"/>
			</g>
			<g>
				<g>
					<path fill="#AACB38" d="M182.3,563.5c-4-1-7.8-1-11.4-0.5c-4.5,0.6-8.6,2-12.5,3.3c-3.7,1.3-7.2,2.8-10.7,4.4
						c0.9-0.5,7.3,3.7,7.8,4.2c7.5,5.1,11.5,11.7,18,16.2c4.7,3.3,9.8,6.1,15.7,7.7c2.4,0.6,4.9,1,7.4,1.1c1.3,0,2.6,0,3.9-0.1
						c0.9-0.1,3.6,0,4.1-0.8C212.7,588.6,201.6,567.7,182.3,563.5z M202.3,596c-7.3-7.6-18.2-15.4-28.2-19.5
						c-9.8-4.4-18.7-5.2-18.6-5.4c-0.2,0.2,8.9-0.4,19.3,3.7C185.2,578.4,197,586.7,202.3,596z"/>
				</g>
				<g>
					<path fill="#AACB38" d="M168.3,609c-3,1.1-5.5,2.7-7.7,4.6c-2.7,2.3-4.8,5-6.8,7.5c-1.9,2.4-3.5,4.9-5.1,7.5
						c0.4-0.7,6.4-0.7,6.9-0.6c7,0.1,12.5,2.7,18.7,2.9c4.5,0.2,9-0.2,13.5-1.7c1.8-0.6,3.6-1.4,5.3-2.5c0.9-0.5,1.7-1.1,2.5-1.8
						c0.5-0.5,2.4-1.6,2.4-2.3C198.9,612.4,182.7,603.6,168.3,609z M195.3,621.6c-8-1.8-18.5-2.3-26.7-0.7
						c-8.3,1.3-14.4,4.6-14.4,4.4c0,0.2,5.6-4,14.1-5.9C176.6,617.5,187.8,617.9,195.3,621.6z"/>
				</g>
				<g>
					<path fill="#AACB38" d="M362.2,646.9c2.9,1.2,5.4,3,7.4,5c2.5,2.5,4.5,5.2,6.3,7.9c1.7,2.5,3.3,5.1,4.7,7.7
						c-0.3-0.7-6.3-1.1-6.8-1c-7-0.3-12.6,2-18.8,1.9c-4.5-0.1-9-0.7-13.4-2.4c-1.8-0.7-3.6-1.6-5.2-2.7c-0.9-0.6-1.7-1.2-2.4-1.9
						c-0.5-0.5-2.3-1.7-2.2-2.4C331.5,648.7,348.2,640.7,362.2,646.9z M334.6,658.1c8.1-1.4,18.5-1.3,26.7,0.7
						c8.2,1.7,14.2,5.4,14.2,5.2c0,0.2-5.4-4.3-13.8-6.6C353.5,654.9,342.3,654.7,334.6,658.1z"/>
				</g>
				<g>
					<path fill="#AACB38" d="M354.5,694.9c1.9,2.5,3.1,5.3,3.9,8c0.9,3.4,1.2,6.8,1.5,10c0.2,3,0.2,6.1,0.1,9
						c0.1-0.8-4.9-4.1-5.4-4.3c-5.9-3.8-11.9-4.7-17.2-7.9c-3.8-2.3-7.4-5.2-10.3-8.9c-1.2-1.5-2.2-3.2-3.1-5
						c-0.4-0.9-0.8-1.9-1.1-2.9c-0.2-0.7-1.1-2.6-0.7-3.2C327.2,680.9,345.5,682.4,354.5,694.9z M325.1,690.6
						c7.7,2.9,16.6,8.3,22.7,14.2c6.2,5.7,9.5,11.8,9.6,11.6c-0.1,0.2-2.5-6.5-8.6-12.7C343,697.4,333.3,691.5,325.1,690.6z"/>
				</g>
				<g>
					<path fill="#AACB38" d="M234.9,563c-2.7-1.6-5.6-2.5-8.4-3c-3.5-0.6-6.9-0.5-10.1-0.4c-3,0.1-6,0.4-9,0.8
						c0.8-0.1,4.6,4.4,4.8,4.9c4.4,5.5,5.9,11.4,9.7,16.2c2.7,3.6,5.9,6.8,9.9,9.3c1.7,1,3.4,1.9,5.3,2.5c1,0.3,2,0.6,3,0.8
						c0.7,0.1,2.7,0.8,3.3,0.4C251.7,588.8,248.3,570.6,234.9,563z M242.3,591.8c-3.7-7.3-10-15.7-16.4-21.1
						c-6.3-5.6-12.7-8.2-12.6-8.3c-0.2,0.1,6.7,1.8,13.5,7.2C233.7,574.8,240.5,583.7,242.3,591.8z"/>
				</g>
				<g>
					<path fill="#AACB38" d="M165,678.6c-2.4,2.1-4.1,4.5-5.5,7c-1.6,3.1-2.6,6.4-3.6,9.5c-0.9,2.9-1.5,5.9-2,8.8
						c0.1-0.8,5.7-3,6.2-3.1c6.6-2.4,12.6-2,18.4-4.1c4.3-1.5,8.3-3.5,12-6.5c1.5-1.3,2.9-2.7,4.1-4.2c0.6-0.8,1.2-1.7,1.7-2.6
						c0.3-0.6,1.6-2.3,1.4-3C194.7,670.7,176.4,668.3,165,678.6z M194.7,680.5c-8.1,1.2-18,4.6-25.2,9c-7.3,4.2-11.8,9.5-11.8,9.4
						c0.1,0.2,3.8-5.8,11-10.6C175.8,683.4,186.4,679.7,194.7,680.5z"/>
				</g>
				<g>
					<path fill="#AACB38" d="M306.3,583.9c3.9-1.2,7.7-1.5,11.4-1.2c4.5,0.3,8.7,1.4,12.7,2.5c3.8,1,7.4,2.3,11,3.7
						c-0.9-0.4-7.1,4.1-7.5,4.7c-7.1,5.6-10.7,12.4-16.9,17.4c-4.5,3.6-9.4,6.7-15.2,8.7c-2.4,0.8-4.8,1.3-7.3,1.6
						c-1.3,0.1-2.6,0.2-3.9,0.1c-0.9-0.1-3.6,0.2-4.2-0.5C277.7,611,287.4,589.4,306.3,583.9z M288.5,617.7
						c6.7-8,17.1-16.6,26.8-21.4c9.5-5.1,18.3-6.4,18.2-6.6c0.2,0.2-8.9,0.2-19,4.9C304.4,599,293.2,608.1,288.5,617.7z"/>
				</g>
				<path fill="#72491D" d="M329.3,814.4c-0.9-2.2-1.3-4.5-2.2-6.7c-0.2-0.5-0.4-0.9-0.7-1.2c8.3,1.8,15.5,5.4,18.8,8.1
					c0,0-4.1-10.7-25.3-15.7c-21.2-5-39.1-6.7-44.5-17.4c0,0-8.4-13.7-7.3-54.2c2.5-15.6,11.1-28.6,21.5-38.9
					c9.4-2.6,24.2-4.1,40.1,4.1c0,0-7.9-14-29.1-13.8c17.9-13.9,36.4-20.8,36.4-20.8c-34.5,2-55.7,20.5-65.9,32.5
					c7.2-56.3,21-79.9,21-79.9s-28.1,30.3-31.5,58c0,0-2.4-7.2-7.3-17.3c7.2-40.5-12.9-63.5-12.9-63.5c9.5,16.4,4.7,48.1,4.7,48.1
					c-11.1-18.8-28.1-40.1-51.2-48.1c0,0,12.6,14.3,25.4,34c-6.6-2.3-17.7-4.4-32.8-0.4c0,0,24.6,2.7,40.3,12.7
					c8.7,15,16.3,31.7,18.7,47.3c-8.4-3.6-27.7-8.9-54.6,0.7c0,0,40-2,55.3,19.1c-1,40.5-7.4,79.4-7.4,79.4S225.2,797,207,802.1
					c-18.3,5-39.4,20.7-27.4,37.8c0,0-3.7-17.1,12-21.1c-2.9,2.8-3.5,6.7-3.5,10.5c0,2.8,0.7,6.2-0.2,9c-1,3-2.7,6.4-4.9,8.6
					c3.1-0.4,7.3-3.9,8.2-6.9c1.3-4.2,0.9-8.8,2.6-12.9c1-2.5,2.7-5.1,4.9-6.7c1.8-1.4,4.5-2.1,6.7-2.9c2.3-0.8,4.8-1.6,6.6-3.2
					c6.9-1.6,12.3-3.4,15.1-6.5c0,0-7.9,11.7-17.7,15c-9.8,3.3-19.1,17.9-14.1,26.1c0,0,1-12.1,11.4-14
					c10.4-1.9,36.1-19.2,39.9-34.6c0,0-2.8,12.9-7.7,20c-4.9,7-21.9,21.1-16.8,31.7c0,0,2.4-14.8,21.6-22.2c0,0-5.6,38.6-16.5,46.2
					c0,0,15.7-4.2,23.3-44.4s6.1-31.4,6.1-31.4s4.1,14.8,1.9,25.5s-3.2,19.9-0.5,25.3c0,0,2.2-12.4,6.1-19.9c3.1-6.2,0-35.3,0-35.3
					s4.6,20,5,30.4s-0.5,16.1,3.7,26.1c4.2,10.1,12.5,18.6,12.5,18.6s-10-18.2-9-29.9c0.5-6.1,0.8-15.6,0.3-25.1c1,2,2.5,3.7,4.6,5
					c3.5,2.2,7.6,3.6,10.9,6.1c5.5,4.3,5.6,9.7,6.1,16c0,0,7.4-11.8-2.6-20.6c-8.7-7.6-16.8-11.4-20.5-21.1
					c-0.6-3.4-1.3-6.5-2.2-9.2c0,0,4.1,5.3,12.1,9.6c0.2,0.5,0.3,1.1,0.4,1.7c0.5,2,0.8,4.1,1.7,5.9c1.5,3.2,6.2,6,9.8,5.6
					c-1.3-0.2-3.2-1.6-4.1-2.5c-1.2-1.2-1.2-3.2-1.6-4.8c-0.2-1.1-0.5-2.3-0.9-3.5c0.5,0.2,1,0.4,1.5,0.5
					c12.6,4.2,29.9,18.5,32.1,24.6c0,0-7.3-19.8-25.7-27.3c0,0,8.1,2.6,19.6,3.2c0.1,0,0.2,0,0.3,0c0.5,0.2,1,0.5,1.5,0.8
					c2.7,1.5,3.8,4.1,4.2,7.1c0.4,3,1.7,5.5,4.4,7c2.3,1.3,5.7,0.6,8.2,0.5c-0.5-0.6-2.5-0.7-3.4-1.3
					C331.4,818.3,330.2,816.3,329.3,814.4z"/>
				<g>
					<path fill="#AACB38" d="M297.2,643.5c2.1-0.7,4.1-1,6.1-0.9c2.5,0.1,4.7,0.6,6.9,1.1c2.1,0.5,4.1,1.1,6,1.7
						c-0.5-0.2-3.7,2.4-3.9,2.7c-3.7,3.2-5.5,6.9-8.7,9.8c-2.3,2.1-4.9,3.9-8,5c-1.3,0.5-2.6,0.8-3.9,1c-0.7,0.1-1.4,0.1-2.1,0.1
						c-0.5,0-2,0.2-2.3-0.2C282.4,658.8,287.1,646.9,297.2,643.5z M288.3,662.1c3.5-4.5,8.9-9.3,14-12.2c5-3,9.8-3.9,9.7-4
						c0.1,0.1-4.8,0.3-10.1,3.1C296.5,651.6,290.7,656.8,288.3,662.1z"/>
				</g>
				<g>
					<path fill="#AACB38" d="M311.1,702.5c1.4,1.7,2.2,3.6,2.8,5.5c0.7,2.4,0.9,4.7,1.2,6.9c0.2,2.1,0.2,4.2,0.2,6.3
						c0-0.5-3.4-2.8-3.8-2.9c-4.2-2.5-8.3-3.1-12-5.3c-2.7-1.6-5.2-3.5-7.3-6c-0.8-1.1-1.6-2.2-2.2-3.4c-0.3-0.6-0.6-1.3-0.8-2
						c-0.1-0.5-0.8-1.8-0.5-2.2C292,693.1,304.8,693.9,311.1,702.5z M290.7,699.9c5.3,1.9,11.6,5.5,15.9,9.5c4.4,3.9,6.7,8.1,6.8,8
						c-0.1,0.1-1.8-4.5-6.1-8.7C303.2,704.3,296.4,700.4,290.7,699.9z"/>
				</g>
				<g>
					<path fill="#AACB38" d="M340.4,621.5c2.2-0.1,4.2,0.4,6.1,1.1c2.3,0.8,4.3,2,6.2,3.2c1.8,1.1,3.5,2.3,5.1,3.6
						c-0.4-0.3-4.3,1.1-4.6,1.3c-4.5,1.8-7.4,4.8-11.4,6.5c-2.9,1.2-5.9,2.1-9.2,2.2c-1.4,0.1-2.7,0-4.1-0.3
						c-0.7-0.1-1.4-0.3-2.1-0.5c-0.5-0.2-1.9-0.4-2.1-0.9C321.4,631.3,329.7,621.5,340.4,621.5z M326.1,636.3
						c4.7-3.2,11.4-6.1,17.1-7.1c5.7-1.2,10.5-0.6,10.4-0.7c0.1,0.1-4.6-1.2-10.6-0.3C337.1,629,329.9,632.1,326.1,636.3z"/>
				</g>
				<g>
					<path fill="#AACB38" d="M349.7,595.3c2.2-0.1,4.2,0.4,6.1,1.1c2.3,0.8,4.3,2,6.2,3.2c1.8,1.1,3.5,2.3,5.1,3.6
						c-0.4-0.3-4.3,1.1-4.6,1.3c-4.5,1.8-7.4,4.8-11.4,6.5c-2.9,1.2-5.9,2.1-9.2,2.2c-1.4,0.1-2.7,0-4.1-0.3
						c-0.7-0.1-1.4-0.3-2.1-0.5c-0.5-0.2-1.9-0.4-2.1-0.9C330.8,605.1,339,595.3,349.7,595.3z M335.4,610.2
						c4.7-3.2,11.4-6.1,17.1-7.1c5.7-1.2,10.5-0.6,10.4-0.7c0.1,0.1-4.6-1.2-10.6-0.3C346.4,602.8,339.3,605.9,335.4,610.2z"/>
				</g>
				<g>
					<path fill="#AACB38" d="M340.5,557c2.1,0.8,3.8,1.9,5.3,3.2c1.8,1.6,3.3,3.5,4.6,5.3c1.3,1.7,2.4,3.4,3.5,5.2
						c-0.3-0.5-4.4-0.6-4.8-0.5c-4.9,0-8.7,1.8-13,1.8c-3.1,0.1-6.3-0.2-9.4-1.3c-1.3-0.4-2.5-1-3.7-1.8c-0.6-0.4-1.2-0.8-1.7-1.3
						c-0.4-0.3-1.6-1.1-1.6-1.6C319.2,559.1,330.5,553,340.5,557z M321.7,565.5c5.5-1.2,12.8-1.4,18.5-0.3c5.8,1,10,3.3,10,3.2
						c0,0.2-3.9-2.9-9.8-4.2C334.7,562.7,326.9,562.9,321.7,565.5z"/>
				</g>
				<g>
					<path fill="#AACB38" d="M290.8,564.5c2.1-0.7,4.2-0.9,6.1-0.8c2.5,0.1,4.7,0.7,6.9,1.2c2.1,0.5,4,1.2,6,1.9
						c-0.5-0.2-3.8,2.3-4,2.6c-3.8,3.1-5.6,6.8-8.9,9.6c-2.4,2-5,3.8-8.1,4.9c-1.3,0.5-2.6,0.8-3.9,0.9c-0.7,0.1-1.4,0.1-2.1,0.1
						c-0.5,0-2,0.2-2.3-0.2C275.6,579.5,280.6,567.7,290.8,564.5z M281.6,583c3.5-4.4,9.1-9.2,14.2-11.9c5.1-2.9,9.8-3.7,9.7-3.8
						c0.1,0.1-4.8,0.2-10.2,2.9C289.9,572.7,284,577.7,281.6,583z"/>
				</g>
				<g>
					<path fill="#AACB38" d="M265.1,556.2c1.7-1.4,3.6-2.2,5.5-2.8c2.4-0.7,4.7-0.9,6.9-1.1c2.1-0.2,4.2-0.2,6.3-0.2
						c-0.5,0-2.8,3.4-2.9,3.8c-2.6,4.2-3.1,8.3-5.3,12c-1.6,2.7-3.5,5.2-6.1,7.3c-1.1,0.8-2.2,1.6-3.4,2.2c-0.6,0.3-1.3,0.6-2,0.8
						c-0.5,0.1-1.8,0.8-2.2,0.5C255.7,575.3,256.5,562.6,265.1,556.2z M262.4,576.7c1.9-5.3,5.6-11.6,9.6-15.9
						c3.9-4.4,8.1-6.7,8-6.8c0.1,0.1-4.5,1.8-8.7,6.1C267,564.2,263,570.9,262.4,576.7z"/>
				</g>
				<g>
					<path fill="#AACB38" d="M310.8,535.1c2.2,0,4.2,0.5,6.1,1.3c2.3,0.9,4.3,2.2,6.1,3.4c1.8,1.2,3.4,2.4,5,3.7
						c-0.4-0.4-4.3,0.9-4.6,1.1c-4.6,1.7-7.6,4.6-11.6,6.1c-2.9,1.1-6,1.9-9.3,1.9c-1.4,0-2.7-0.1-4-0.4c-0.7-0.2-1.4-0.4-2-0.6
						c-0.4-0.2-1.9-0.5-2.1-1C291.5,544.2,300.1,534.8,310.8,535.1z M296,549.4c4.8-3,11.6-5.6,17.4-6.5c5.7-1,10.5-0.2,10.5-0.3
						c0.1,0.1-4.6-1.4-10.6-0.6C307.3,542.5,300,545.3,296,549.4z"/>
				</g>
				<g>
					<path fill="#AACB38" d="M272.3,526.3c2.2,0,4.2,0.5,6.1,1.3c2.3,0.9,4.3,2.2,6.1,3.4c1.8,1.2,3.4,2.4,5,3.7
						c-0.4-0.4-4.3,0.9-4.6,1.1c-4.6,1.7-7.6,4.6-11.6,6.1c-2.9,1.1-6,1.9-9.3,1.9c-1.4,0-2.7-0.1-4-0.4c-0.7-0.2-1.4-0.4-2-0.6
						c-0.4-0.2-1.9-0.5-2.1-1C253.1,535.4,261.7,526,272.3,526.3z M257.5,540.6c4.8-3,11.6-5.6,17.4-6.5c5.7-1,10.5-0.2,10.5-0.3
						c0.1,0.1-4.6-1.4-10.6-0.6C268.8,533.7,261.5,536.5,257.5,540.6z"/>
				</g>
				<g>
					<path fill="#AACB38" d="M258.1,601c0.5-2.2,1.4-4,2.5-5.6c1.4-2,3-3.7,4.6-5.3c1.5-1.5,3.1-2.8,4.7-4.1c-0.4,0.3,0,4.4,0.1,4.8
						c0.7,4.8,2.9,8.4,3.5,12.6c0.5,3.1,0.6,6.2-0.1,9.5c-0.3,1.3-0.7,2.6-1.3,3.9c-0.3,0.7-0.6,1.3-1,1.9c-0.3,0.4-0.9,1.7-1.4,1.8
						C262.9,621.8,255.5,611.4,258.1,601z M269,618.5c-1.9-5.3-3.1-12.5-2.7-18.4c0.2-5.8,2-10.3,1.9-10.3c0.2,0-2.3,4.2-2.9,10.2
						C264.6,606,265.8,613.7,269,618.5z"/>
				</g>
				<g>
					<path fill="#AACB38" d="M213.1,654.1c-2.2,0.5-4,1.4-5.7,2.4c-2,1.4-3.7,3-5.3,4.6c-1.5,1.5-2.9,3.1-4.2,4.7
						c0.3-0.4,4.4,0.1,4.8,0.2c4.8,0.7,8.4,3,12.6,3.7c3.1,0.5,6.2,0.7,9.5,0.1c1.3-0.3,2.6-0.7,3.9-1.2c0.7-0.3,1.3-0.6,1.9-1
						c0.4-0.3,1.8-0.9,1.8-1.3C233.8,659.3,223.5,651.7,213.1,654.1z M230.5,665.3c-5.3-2-12.5-3.2-18.3-2.9
						c-5.8,0.1-10.3,1.8-10.3,1.7c0,0.2,4.2-2.3,10.2-2.7C218.1,660.7,225.8,662,230.5,665.3z"/>
				</g>
				<g>
					<path fill="#AACB38" d="M186.7,634c-2.1,0.7-3.8,1.9-5.3,3.2c-1.9,1.6-3.3,3.4-4.7,5.2c-1.3,1.7-2.5,3.4-3.5,5.2
						c0.3-0.5,4.4-0.5,4.8-0.4c4.9,0.1,8.7,1.9,13,2c3.1,0.1,6.3-0.1,9.4-1.2c1.3-0.4,2.5-1,3.7-1.7c0.6-0.4,1.2-0.8,1.7-1.2
						c0.4-0.3,1.6-1.1,1.6-1.6C207.9,636.4,196.7,630.2,186.7,634z M205.4,642.8c-5.5-1.3-12.8-1.6-18.5-0.5c-5.8,0.9-10,3.2-10,3.1
						c0,0.2,3.9-2.8,9.8-4C192.5,639.8,200.3,640.1,205.4,642.8z"/>
				</g>
				<g>
					<path fill="#AACB38" d="M156.8,652.8c-2.2,0.5-4,1.4-5.7,2.4c-2,1.4-3.7,3-5.3,4.6c-1.5,1.5-2.9,3.1-4.2,4.7
						c0.3-0.4,4.4,0.1,4.8,0.2c4.8,0.7,8.4,3,12.6,3.7c3.1,0.5,6.2,0.7,9.5,0.1c1.3-0.3,2.6-0.7,3.9-1.2c0.7-0.3,1.3-0.6,1.9-1
						c0.4-0.3,1.8-0.9,1.8-1.3C177.5,657.9,167.2,650.3,156.8,652.8z M174.1,663.9c-5.3-2-12.5-3.2-18.3-2.9
						c-5.8,0.1-10.3,1.8-10.3,1.7c0,0.2,4.2-2.3,10.2-2.7C161.7,659.3,169.4,660.6,174.1,663.9z"/>
				</g>
				<g>
					<path fill="#AACB38" d="M144.1,583.6c-2.2,0.1-4.2,0.7-6,1.5c-2.2,1-4.2,2.4-6,3.7c-1.7,1.2-3.3,2.6-4.9,3.9
						c0.4-0.4,4.4,0.8,4.7,1c4.6,1.5,7.8,4.3,11.8,5.6c3,1,6,1.7,9.3,1.6c1.4,0,2.7-0.2,4-0.6c0.7-0.2,1.4-0.4,2-0.7
						c0.4-0.2,1.9-0.6,2-1C163.8,592,154.8,582.8,144.1,583.6z M159.5,597.4c-4.9-2.8-11.8-5.2-17.6-5.8c-5.8-0.8-10.5,0.2-10.5,0.1
						c-0.1,0.1,4.5-1.6,10.6-1.1C148,590.9,155.3,593.4,159.5,597.4z"/>
				</g>
				<g>
					<path fill="#AACB38" d="M193,535.3c-2.1-0.5-4.2-0.6-6.2-0.3c-2.4,0.3-4.7,1-6.8,1.7c-2,0.7-3.9,1.5-5.8,2.3
						c0.5-0.2,3.9,2,4.2,2.3c4,2.8,6.1,6.4,9.6,8.9c2.5,1.8,5.3,3.4,8.4,4.3c1.3,0.4,2.7,0.6,4,0.6c0.7,0,1.4,0,2.1-0.1
						c0.5-0.1,2,0,2.2-0.4C209.3,549.1,203.4,537.7,193,535.3z M203.6,553c-3.9-4.1-9.7-8.5-15.1-10.8c-5.3-2.5-10.1-3-10-3
						c-0.1,0.1,4.8-0.1,10.4,2.1C194.5,543.3,200.8,547.9,203.6,553z"/>
				</g>
				<g>
					<path fill="#AACB38" d="M234.8,534.2c-2.1-0.5-4.2-0.6-6.2-0.3c-2.4,0.3-4.7,1-6.8,1.7c-2,0.7-3.9,1.5-5.8,2.3
						c0.5-0.2,3.9,2,4.2,2.3c4,2.8,6.1,6.4,9.6,8.9c2.5,1.8,5.3,3.4,8.4,4.3c1.3,0.4,2.7,0.6,4,0.6c0.7,0,1.4,0,2.1-0.1
						c0.5-0.1,2,0,2.2-0.4C251,548,245.2,536.7,234.8,534.2z M245.4,551.9c-3.9-4.1-9.7-8.5-15.1-10.8c-5.3-2.5-10.1-3-10-3
						c-0.1,0.1,4.8-0.1,10.4,2.1C236.2,542.3,242.5,546.9,245.4,551.9z"/>
				</g>
				<g>
					<path fill="#AACB38" d="M210,696.5c-1.9,1-3.5,2.4-4.8,3.9c-1.6,1.9-2.8,3.9-3.9,5.9c-1,1.8-1.9,3.7-2.7,5.6
						c0.2-0.5,4.3-1.2,4.6-1.1c4.8-0.6,8.9,0.6,13.1,0.1c3.1-0.3,6.2-1.1,9.1-2.6c1.2-0.6,2.4-1.4,3.4-2.2c0.6-0.5,1.1-1,1.5-1.5
						c0.3-0.4,1.5-1.3,1.4-1.8C231.3,695.8,219.3,691.3,210,696.5z M229.7,702.4c-5.7-0.4-12.9,0.3-18.4,2.2
						c-5.6,1.7-9.4,4.6-9.4,4.5c0,0.2,3.4-3.3,9.1-5.4C216.5,701.5,224.3,700.6,229.7,702.4z"/>
				</g>
			</g>
		</g>
	</g>
</g>
</svg>
